<?xml version="1.0" encoding="UTF-8"?>
<svg xmlns="http://www.w3.org/2000/svg" xmlns:xlink="http://www.w3.org/1999/xlink" width="447.310mm" height="378.617mm" viewBox="-618.392883 86.420273 447.309540 378.617188">
    <path transform="matrix(0.999276,-0.038055,0.038055,0.999276,-313.691895,284.991943)" style="stroke:#000000;stroke-width:0.05mm;fill:none" d="M-46.269001,-156.367004L-236.095001,-128.951004"/>
    <path transform="matrix(0.999276,-0.038055,0.038055,0.999276,-313.691895,284.991943)" style="stroke:#000000;stroke-width:0.05mm;fill:none" d="M-55.4184,-200.820007L-55.385262,-200.819504L-55.352123,-200.819L-55.318989,-200.818497L-55.285851,-200.817993L-55.252712,-200.817505L-55.219574,-200.817001L-55.186436,-200.816498L-55.153301,-200.815994L-55.117214,-200.812744L-55.081123,-200.809494L-55.045036,-200.806244L-55.008949,-200.802994L-54.972862,-200.799744L-54.936775,-200.796494L-54.900688,-200.793243L-54.864601,-200.789993L-54.828312,-200.783875C-54.805073,-200.779968,-54.778915,-200.775543,-54.755737,-200.771622C-54.732533,-200.767731,-54.706326,-200.763306,-54.683163,-200.759369L-54.646873,-200.75325C-54.605915,-200.746338,-54.61525,-200.747925,-54.574299,-200.740997L-54.540737,-200.734619L-54.507175,-200.728256L-54.473614,-200.721878L-54.440048,-200.7155L-54.406487,-200.709122L-54.372925,-200.702744L-54.339363,-200.696381L-54.305801,-200.690002L-54.271812,-200.67775C-54.249504,-200.669739,-54.226097,-200.661301,-54.203838,-200.653244C-54.203369,-200.653259,-54.033386,-200.59198,-54.033901,-200.591995C-54.033943,-200.592041,-53.931953,-200.555603,-53.932011,-200.555618C-53.90736,-200.546844,-53.888672,-200.540161,-53.864086,-200.531372C-53.864044,-200.531342,-53.762131,-200.494965,-53.762199,-200.494995L-53.728012,-200.479874L-53.693825,-200.464752C-53.665001,-200.451996,-53.654243,-200.447235,-53.62545,-200.434494L-53.591263,-200.419373L-53.557076,-200.404251C-53.513748,-200.385101,-53.531906,-200.393127,-53.488701,-200.373993C-53.462204,-200.361053,-53.452225,-200.356171,-53.4258,-200.343246C-53.425903,-200.343307,-53.331421,-200.297104,-53.331451,-200.297119C-53.304993,-200.28421,-53.29496,-200.279297,-53.268551,-200.266373L-53.237099,-200.251007C-53.237038,-200.250977,-53.173759,-200.214478,-53.173801,-200.214493L-53.142151,-200.196243L-53.1105,-200.177994L-53.07885,-200.159744L-53.047199,-200.141495L-53.015549,-200.123245L-52.983898,-200.104996L-52.954987,-200.086624L-52.926075,-200.068253C-52.911819,-200.059204,-52.882484,-200.040558,-52.868252,-200.031494L-52.839336,-200.013123L-52.810425,-199.994751C-52.796146,-199.985687,-52.766842,-199.967056,-52.752602,-199.957993L-52.723274,-199.933746L-52.693951,-199.9095C-52.693924,-199.9095,-52.635284,-199.861008,-52.6353,-199.860992L-52.605976,-199.836746L-52.576649,-199.8125L-52.547325,-199.788254L-52.518002,-199.764008L-52.488876,-199.74263L-52.459751,-199.721252L-52.430626,-199.699875L-52.401501,-199.678497L-52.372375,-199.65712L-52.34325,-199.635757L-52.314125,-199.61438L-52.285,-199.593002L-52.258411,-199.568619L-52.231827,-199.54425C-52.21653,-199.530228,-52.193947,-199.509521,-52.17865,-199.495499C-52.163353,-199.481476,-52.140724,-199.460724,-52.125477,-199.446747C-52.110222,-199.43277,-52.087563,-199.412003,-52.0723,-199.397995L-52.045513,-199.370621L-52.018726,-199.343246L-51.991936,-199.315872L-51.965149,-199.288498L-51.938362,-199.261124L-51.911575,-199.233749L-51.884789,-199.206375L-51.858002,-199.179001L-51.834164,-199.154373L-51.810326,-199.129745L-51.786488,-199.105118L-51.76265,-199.080505L-51.738811,-199.055878L-51.714973,-199.03125L-51.691139,-199.006622L-51.667301,-198.981995C-51.650642,-198.962891,-51.635796,-198.945831,-51.619175,-198.926743L-51.595112,-198.899124C-51.578499,-198.880066,-51.56356,-198.862915,-51.546986,-198.843872C-51.530434,-198.824875,-51.51545,-198.807663,-51.498863,-198.78862L-51.4748,-198.761002L-51.453289,-198.730377L-51.431774,-198.699753L-51.410263,-198.669128L-51.388748,-198.638504L-51.367237,-198.60788L-51.345726,-198.577255L-51.324211,-198.546631L-51.3027,-198.516006L-51.281387,-198.488251L-51.260075,-198.460495L-51.238762,-198.432755L-51.217449,-198.404999L-51.196136,-198.377243L-51.174824,-198.349503L-51.153511,-198.321747L-51.132198,-198.294006L-51.113411,-198.263123L-51.094624,-198.232254L-51.075836,-198.20137L-51.057049,-198.170502C-51.044537,-198.150055,-51.031891,-198.129257,-51.019474,-198.108749C-51.01947,-198.108734,-50.981873,-198.046936,-50.981899,-198.046997C-50.981689,-198.046692,-50.933716,-197.953735,-50.933826,-197.953995C-50.933838,-197.95401,-50.88562,-197.860809,-50.88575,-197.860992C-50.885727,-197.860947,-50.853683,-197.798981,-50.853699,-197.798996C-50.853577,-197.79892,-50.795471,-197.680023,-50.795475,-197.679993L-50.766361,-197.620499C-50.766357,-197.620514,-50.70813,-197.501495,-50.708138,-197.501495L-50.679024,-197.442001C-50.678894,-197.441711,-50.620667,-197.322815,-50.6208,-197.322998L-50.594227,-197.260498L-50.56765,-197.197998L-50.541077,-197.135498L-50.5145,-197.072998L-50.487926,-197.010498L-50.461349,-196.947998L-50.434776,-196.885498L-50.408199,-196.822998C-50.408081,-196.822693,-50.354492,-196.691711,-50.354626,-196.692001L-50.327839,-196.626495L-50.301048,-196.561005L-50.274261,-196.495499L-50.247475,-196.429993L-50.220688,-196.364502L-50.193901,-196.298996C-50.193115,-196.297241,-50.119873,-196.082886,-50.120514,-196.084869C-50.120117,-196.084351,-50.046387,-195.869751,-50.047127,-195.870743C-50.047119,-195.870468,-49.998047,-195.727463,-49.998199,-195.727997C-49.998291,-195.727905,-49.954346,-195.578308,-49.954327,-195.578751L-49.932388,-195.50412L-49.91045,-195.429504L-49.888512,-195.354874C-49.888489,-195.354874,-49.844543,-195.205521,-49.844639,-195.205627L-49.822701,-195.130997C-49.822998,-195.131531,-49.754639,-194.871887,-49.754375,-194.872253L-49.731602,-194.785995L-49.708824,-194.699753L-49.68605,-194.613495C-49.685974,-194.613327,-49.640442,-194.440781,-49.640499,-194.440994L-49.620049,-194.348755L-49.599602,-194.2565C-49.599365,-194.256592,-49.55835,-194.071411,-49.558701,-194.072006L-49.53825,-193.979752C-49.538086,-193.979858,-49.49707,-193.794556,-49.497349,-193.795258L-49.476898,-193.703003C-49.477051,-193.703979,-49.439941,-193.498901,-49.440224,-193.500504C-49.440186,-193.500671,-49.403564,-193.29718,-49.403549,-193.298004C-49.403809,-193.299438,-49.367188,-193.095947,-49.366875,-193.095505C-49.366943,-193.094482,-49.329834,-192.890991,-49.3302,-192.893005L-49.311024,-192.780121L-49.291851,-192.667252L-49.272675,-192.554382L-49.253502,-192.441498L-49.234325,-192.328629C-49.234375,-192.328522,-49.196045,-192.102844,-49.195976,-192.102875L-49.1768,-191.990005L-49.159527,-191.865372L-49.14225,-191.740753L-49.124973,-191.616119L-49.1077,-191.491501L-49.090424,-191.366882L-49.073151,-191.242249L-49.055874,-191.11763L-49.038601,-190.992996L-48.891899,-189.878006L-48.758801,-188.645996L-48.617298,-187.296997L-48.465698,-185.807999L-48.324299,-184.154007L-48.172699,-182.360992L-48.009399,-180.404007L-47.8326,-178.261002L-47.482498,-173.410995L-46.254601,-156.384003"/>
    <path transform="matrix(0.999276,-0.038055,0.038055,0.999276,-313.691895,284.991943)" style="stroke:#000000;stroke-width:0.05mm;fill:none" d="M-180.285995,-161.968002L-180.177994,-160.472L-259.970001,-154.712006L-260.078003,-156.207993L-180.285995,-161.968002z"/>
    <path transform="matrix(0.999276,-0.038055,0.038055,0.999276,-313.691895,284.991943)" style="stroke:#000000;stroke-width:0.05mm;fill:none" d="M-255.802002,-97.217697L-251.313995,-97.541801L-251.248993,-98.612099L-251.147995,-99.7229L-250.996994,-100.901001L-250.796005,-102.125L-250.578995,-103.372002L-250.328003,-104.663002L-250.042999,-105.977997L-249.722,-107.295998L-249.384003,-108.636002L-249.026993,-109.956001L-248.651993,-111.278L-248.238998,-112.581001L-247.843002,-113.862L-247.406998,-115.102997L-246.968994,-116.302002L-246.546005,-117.457001L-246.100006,-118.550003L-245.649002,-119.580002L-245.594254,-119.697998L-245.539505,-119.816002L-245.484756,-119.933998C-245.484619,-119.934196,-245.375244,-120.169563,-245.375244,-120.169998L-245.320496,-120.288002L-245.265747,-120.405998L-245.210999,-120.524002L-245.155502,-120.634117L-245.100006,-120.744247L-245.044495,-120.854378L-244.988998,-120.9645L-244.933502,-121.074623L-244.878006,-121.184753L-244.822495,-121.294884L-244.766998,-121.404999L-244.730743,-121.466003L-244.694504,-121.527L-244.658249,-121.587997L-244.621994,-121.649002C-244.575638,-121.727013,-244.595779,-121.693108,-244.5495,-121.771004L-244.513245,-121.832001L-244.477005,-121.892998L-244.440872,-121.956627L-244.404755,-122.020248L-244.368622,-122.083878L-244.332504,-122.147499L-244.296371,-122.211128L-244.260254,-122.27475L-244.224121,-122.338371L-244.188004,-122.402L-244.144882,-122.463501L-244.101746,-122.525002L-244.058624,-122.586502L-244.015503,-122.648003L-243.972382,-122.709503L-243.929245,-122.771004L-243.886124,-122.832497L-243.843002,-122.893997L-243.800003,-122.955498L-243.757004,-123.016998L-243.714005,-123.078499L-243.671005,-123.139999L-243.628006,-123.2015L-243.585007,-123.263L-243.542007,-123.324501L-243.498993,-123.386002L-243.453629,-123.447617L-243.408249,-123.509247L-243.362869,-123.570877C-243.362793,-123.570923,-243.271973,-123.694206,-243.272125,-123.694122L-243.226746,-123.755753C-243.170517,-123.832153,-243.192154,-123.802757,-243.136002,-123.878998L-243.085999,-123.938248L-243.035995,-123.997498L-242.985992,-124.056747C-242.985931,-124.056793,-242.885956,-124.175323,-242.886002,-124.175247L-242.835999,-124.234497L-242.785995,-124.293747L-242.735992,-124.352997C-242.735718,-124.352913,-242.434204,-124.693481,-242.434494,-124.693497C-242.434479,-124.693542,-242.333893,-124.807129,-242.334,-124.806999L-242.281631,-124.863747L-242.229248,-124.920502L-242.17688,-124.977249L-242.124496,-125.033997L-242.072128,-125.090752L-242.019745,-125.147499L-241.967377,-125.204247L-241.914993,-125.261002L-241.860001,-125.315376L-241.804993,-125.369751C-241.80481,-125.370003,-241.639893,-125.533081,-241.639999,-125.532883L-241.585007,-125.58725L-241.529999,-125.641617L-241.475006,-125.695999L-241.417755,-125.747871L-241.360504,-125.799751L-241.303253,-125.851624L-241.246002,-125.903503L-241.188751,-125.955383L-241.1315,-126.007248L-241.074249,-126.059128L-241.016998,-126.111C-241.017059,-126.110992,-240.901825,-126.209503,-240.901749,-126.209503L-240.844131,-126.258751L-240.786499,-126.307999C-240.786469,-126.307953,-240.671295,-126.406403,-240.671249,-126.406502L-240.613632,-126.45575L-240.556,-126.504997L-240.496124,-126.551872L-240.436249,-126.598747L-240.376373,-126.645622L-240.316498,-126.692497L-240.256622,-126.739372L-240.196747,-126.786247L-240.136871,-126.833122L-240.076996,-126.879997L-240.016998,-126.92675L-239.957001,-126.973503L-239.897003,-127.020248L-239.837006,-127.067001L-239.776993,-127.113747L-239.716995,-127.1605L-239.656998,-127.207253L-239.597,-127.253998L-239.536499,-127.292877L-239.475998,-127.331749L-239.415497,-127.370628L-239.354996,-127.4095L-239.294495,-127.448372L-239.233994,-127.487251L-239.173492,-127.526123L-239.113007,-127.565002L-239.052368,-127.603752L-238.991745,-127.642502L-238.931122,-127.681252L-238.870499,-127.720001L-238.809875,-127.758751L-238.749252,-127.797501L-238.688629,-127.83625L-238.628006,-127.875L-238.565002,-127.911499L-238.501999,-127.947998L-238.438995,-127.984497C-238.439041,-127.984497,-238.313095,-128.057495,-238.313004,-128.057495L-238.25,-128.093994L-238.186996,-128.130493L-238.123993,-128.167007L-238.060501,-128.195374C-238.060272,-128.195435,-237.93338,-128.252197,-237.933502,-128.252121C-237.933441,-128.252197,-237.806427,-128.308899,-237.806503,-128.308868C-237.806091,-128.309082,-237.61554,-128.394287,-237.615997,-128.393997L-237.554749,-128.422379L-237.4935,-128.450745L-237.432251,-128.479126L-237.371002,-128.507507L-237.309753,-128.535873L-237.248505,-128.564255L-237.187256,-128.592621L-237.126007,-128.621002L-237.061996,-128.644119L-236.998001,-128.667252L-236.934006,-128.690369L-236.869995,-128.713501L-236.806,-128.736618L-236.742004,-128.75975L-236.677994,-128.782867L-236.613998,-128.806L-236.55188,-128.823746L-236.489746,-128.841507L-236.427628,-128.859253C-236.427185,-128.859375,-236.303223,-128.894775,-236.303375,-128.894745L-236.241257,-128.912506L-236.179123,-128.930252L-236.117004,-128.947998"/>
    <path transform="matrix(0.999276,-0.038055,0.038055,0.999276,-313.691895,284.991943)" style="stroke:#000000;stroke-width:0.05mm;fill:none" d="M-255.811005,-97.222099L-263.093994,-198.115005L-258.596985,-198.440002C-258.593353,-198.406601,-258.589111,-198.373276,-258.584503,-198.339996L-258.578247,-198.289993L-258.571991,-198.240005L-258.565735,-198.190002C-258.562378,-198.162964,-258.556641,-198.116989,-258.553253,-198.089996L-258.546997,-198.039993L-258.535492,-197.990494L-258.523987,-197.940994C-258.517639,-197.913712,-258.507385,-197.869293,-258.501007,-197.841995L-258.489502,-197.792496L-258.477997,-197.742996L-258.466492,-197.693497L-258.454987,-197.643997L-258.438263,-197.594757L-258.421509,-197.545502L-258.404755,-197.496246L-258.388,-197.447006L-258.371246,-197.397751L-258.354492,-197.348495L-258.337738,-197.299255L-258.321014,-197.25C-258.320923,-197.249817,-258.255737,-197.119446,-258.255737,-197.119507C-258.241669,-197.090286,-258.227173,-197.061295,-258.21225,-197.032501L-258.190491,-196.988998C-258.176361,-196.959824,-258.162018,-196.930725,-258.147003,-196.901993L-258.122498,-196.856003C-258.111115,-196.834641,-258.084839,-196.785324,-258.073486,-196.764008C-258.073608,-196.76416,-258.024597,-196.67215,-258.024506,-196.671997L-258,-196.626007L-257.975494,-196.580002L-257.950989,-196.533997L-257.921509,-196.493744L-257.891998,-196.453506L-257.862488,-196.413254C-257.843079,-196.386215,-257.823792,-196.359116,-257.803497,-196.332748L-257.773987,-196.292496C-257.753998,-196.265137,-257.735046,-196.239349,-257.714996,-196.212006C-257.689758,-196.180466,-257.676025,-196.163345,-257.650757,-196.131744C-257.618439,-196.091415,-257.586609,-196.051682,-257.554382,-196.011368C-257.531525,-195.982849,-257.51297,-195.959656,-257.490112,-195.931122L-257.458008,-195.891006L-257.420868,-195.853882L-257.383759,-195.816757L-257.346619,-195.779633L-257.309509,-195.742493L-257.272369,-195.705368L-257.23526,-195.668243L-257.19812,-195.631119L-257.161011,-195.593994L-257.121368,-195.559753C-257.095551,-195.536224,-257.069,-195.513535,-257.042114,-195.491257C-257.021393,-195.473328,-256.983643,-195.44072,-256.96286,-195.422745C-256.933167,-195.397064,-256.873718,-195.345703,-256.843994,-195.320007C-256.843628,-195.319763,-256.591431,-195.130554,-256.59201,-195.130997C-256.537292,-195.089981,-256.562531,-195.108902,-256.507996,-195.067993L-256.463257,-195.036743C-256.403992,-194.995377,-256.432922,-195.015579,-256.373749,-194.974243L-256.32901,-194.942993C-256.269531,-194.901459,-256.298889,-194.921967,-256.239502,-194.880493L-256.194763,-194.849243L-256.149994,-194.817993C-256.094116,-194.785156,-256.02887,-194.746826,-255.973007,-194.714005L-255.928757,-194.688004L-255.884506,-194.662003L-255.840256,-194.636002L-255.796005,-194.610001L-255.748993,-194.584244L-255.701996,-194.558502L-255.654999,-194.532745L-255.608002,-194.507004L-255.561005,-194.481247L-255.514008,-194.455505L-255.466995,-194.429749L-255.419998,-194.404007L-255.370621,-194.380997C-255.337158,-194.366898,-255.304565,-194.350876,-255.271881,-194.335007L-255.222504,-194.311996L-255.173126,-194.289001L-255.123749,-194.266006L-255.074371,-194.242996L-255.024994,-194.220001C-255.024658,-194.219727,-254.731079,-194.114258,-254.731003,-194.114243C-254.698227,-194.102768,-254.665527,-194.091125,-254.632996,-194.078995C-254.600113,-194.067535,-254.567398,-194.055588,-254.534744,-194.043503L-254.485626,-194.025757C-254.453644,-194.014191,-254.419373,-194.001801,-254.387375,-193.99025C-254.355179,-193.978607,-254.321274,-193.966354,-254.289124,-193.954742L-254.240005,-193.936996L-254.188507,-193.922119C-254.188416,-193.922073,-254.085449,-193.892349,-254.085495,-193.89238L-254.033997,-193.877502L-253.982498,-193.862625L-253.931,-193.847748L-253.879501,-193.83287L-253.828003,-193.817993C-253.82724,-193.817871,-253.537018,-193.759277,-253.53775,-193.759506L-253.48938,-193.749756L-253.440994,-193.740005L-253.389877,-193.730499L-253.338745,-193.720993C-253.33876,-193.721008,-253.236496,-193.701996,-253.236496,-193.701996C-253.23642,-193.701965,-253.134247,-193.682983,-253.134247,-193.682999L-253.08313,-193.673492L-253.031998,-193.664001L-252.983994,-193.6595L-252.936005,-193.654999L-252.888,-193.650497L-252.839996,-193.645996L-252.792007,-193.641495L-252.744003,-193.636993C-252.681931,-193.631195,-252.710022,-193.63382,-252.647995,-193.628006L-55.379299,-200.822998"/>
    <path transform="matrix(0.02009,0.999798,0.999798,-0.02009,-414.797638,508.14093)" style="stroke:#000000;stroke-width:0.05mm;fill:none" d="M-180.285995,-161.968002L-180.177994,-160.472L-259.970001,-154.712006L-260.078003,-156.207993L-180.285995,-161.968002z"/>
    <path transform="matrix(0.02009,0.999798,0.999798,-0.02009,-414.797638,508.14093)" style="stroke:#000000;stroke-width:0.05mm;fill:none" d="M-46.269001,-156.367004L-236.095001,-128.951004"/>
    <path transform="matrix(0.02009,0.999798,0.999798,-0.02009,-414.797638,508.14093)" style="stroke:#000000;stroke-width:0.05mm;fill:none" d="M-255.802002,-97.217697L-251.313995,-97.541801L-251.248993,-98.612099L-251.147995,-99.7229L-250.996994,-100.901001L-250.796005,-102.125L-250.578995,-103.372002L-250.328003,-104.663002L-250.042999,-105.977997L-249.722,-107.295998L-249.384003,-108.636002L-249.026993,-109.956001L-248.651993,-111.278L-248.238998,-112.581001L-247.843002,-113.862L-247.406998,-115.102997L-246.968994,-116.302002L-246.546005,-117.457001L-246.100006,-118.550003L-245.649002,-119.580002L-245.594254,-119.697998L-245.539505,-119.816002L-245.484756,-119.933998C-245.484619,-119.934196,-245.375244,-120.169563,-245.375244,-120.169998L-245.320496,-120.288002L-245.265747,-120.405998L-245.210999,-120.524002L-245.155502,-120.634117L-245.100006,-120.744247L-245.044495,-120.854378L-244.988998,-120.9645L-244.933502,-121.074623L-244.878006,-121.184753L-244.822495,-121.294884L-244.766998,-121.404999L-244.730743,-121.466003L-244.694504,-121.527L-244.658249,-121.587997L-244.621994,-121.649002C-244.575638,-121.727013,-244.595779,-121.693108,-244.5495,-121.771004L-244.513245,-121.832001L-244.477005,-121.892998L-244.440872,-121.956627L-244.404755,-122.020248L-244.368622,-122.083878L-244.332504,-122.147499L-244.296371,-122.211128L-244.260254,-122.27475L-244.224121,-122.338371L-244.188004,-122.402L-244.144882,-122.463501L-244.101746,-122.525002L-244.058624,-122.586502L-244.015503,-122.648003L-243.972382,-122.709503L-243.929245,-122.771004L-243.886124,-122.832497L-243.843002,-122.893997L-243.800003,-122.955498L-243.757004,-123.016998L-243.714005,-123.078499L-243.671005,-123.139999L-243.628006,-123.2015L-243.585007,-123.263L-243.542007,-123.324501L-243.498993,-123.386002L-243.453629,-123.447617L-243.408249,-123.509247L-243.362869,-123.570877C-243.362793,-123.570923,-243.271973,-123.694206,-243.272125,-123.694122L-243.226746,-123.755753C-243.170517,-123.832153,-243.192154,-123.802757,-243.136002,-123.878998L-243.085999,-123.938248L-243.035995,-123.997498L-242.985992,-124.056747C-242.985931,-124.056793,-242.885956,-124.175323,-242.886002,-124.175247L-242.835999,-124.234497L-242.785995,-124.293747L-242.735992,-124.352997C-242.735718,-124.352913,-242.434204,-124.693481,-242.434494,-124.693497C-242.434479,-124.693542,-242.333893,-124.807129,-242.334,-124.806999L-242.281631,-124.863747L-242.229248,-124.920502L-242.17688,-124.977249L-242.124496,-125.033997L-242.072128,-125.090752L-242.019745,-125.147499L-241.967377,-125.204247L-241.914993,-125.261002L-241.860001,-125.315376L-241.804993,-125.369751C-241.80481,-125.370003,-241.639893,-125.533081,-241.639999,-125.532883L-241.585007,-125.58725L-241.529999,-125.641617L-241.475006,-125.695999L-241.417755,-125.747871L-241.360504,-125.799751L-241.303253,-125.851624L-241.246002,-125.903503L-241.188751,-125.955383L-241.1315,-126.007248L-241.074249,-126.059128L-241.016998,-126.111C-241.017059,-126.110992,-240.901825,-126.209503,-240.901749,-126.209503L-240.844131,-126.258751L-240.786499,-126.307999C-240.786469,-126.307953,-240.671295,-126.406403,-240.671249,-126.406502L-240.613632,-126.45575L-240.556,-126.504997L-240.496124,-126.551872L-240.436249,-126.598747L-240.376373,-126.645622L-240.316498,-126.692497L-240.256622,-126.739372L-240.196747,-126.786247L-240.136871,-126.833122L-240.076996,-126.879997L-240.016998,-126.92675L-239.957001,-126.973503L-239.897003,-127.020248L-239.837006,-127.067001L-239.776993,-127.113747L-239.716995,-127.1605L-239.656998,-127.207253L-239.597,-127.253998L-239.536499,-127.292877L-239.475998,-127.331749L-239.415497,-127.370628L-239.354996,-127.4095L-239.294495,-127.448372L-239.233994,-127.487251L-239.173492,-127.526123L-239.113007,-127.565002L-239.052368,-127.603752L-238.991745,-127.642502L-238.931122,-127.681252L-238.870499,-127.720001L-238.809875,-127.758751L-238.749252,-127.797501L-238.688629,-127.83625L-238.628006,-127.875L-238.565002,-127.911499L-238.501999,-127.947998L-238.438995,-127.984497C-238.439041,-127.984497,-238.313095,-128.057495,-238.313004,-128.057495L-238.25,-128.093994L-238.186996,-128.130493L-238.123993,-128.167007L-238.060501,-128.195374C-238.060272,-128.195435,-237.93338,-128.252197,-237.933502,-128.252121C-237.933441,-128.252197,-237.806427,-128.308899,-237.806503,-128.308868C-237.806091,-128.309082,-237.61554,-128.394287,-237.615997,-128.393997L-237.554749,-128.422379L-237.4935,-128.450745L-237.432251,-128.479126L-237.371002,-128.507507L-237.309753,-128.535873L-237.248505,-128.564255L-237.187256,-128.592621L-237.126007,-128.621002L-237.061996,-128.644119L-236.998001,-128.667252L-236.934006,-128.690369L-236.869995,-128.713501L-236.806,-128.736618L-236.742004,-128.75975L-236.677994,-128.782867L-236.613998,-128.806L-236.55188,-128.823746L-236.489746,-128.841507L-236.427628,-128.859253C-236.427185,-128.859375,-236.303223,-128.894775,-236.303375,-128.894745L-236.241257,-128.912506L-236.179123,-128.930252L-236.117004,-128.947998"/>
    <path transform="matrix(0.02009,0.999798,0.999798,-0.02009,-414.797638,508.14093)" style="stroke:#000000;stroke-width:0.05mm;fill:none" d="M-55.4184,-200.820007L-55.385262,-200.819504L-55.352123,-200.819L-55.318989,-200.818497L-55.285851,-200.817993L-55.252712,-200.817505L-55.219574,-200.817001L-55.186436,-200.816498L-55.153301,-200.815994L-55.117214,-200.812744L-55.081123,-200.809494L-55.045036,-200.806244L-55.008949,-200.802994L-54.972862,-200.799744L-54.936775,-200.796494L-54.900688,-200.793243L-54.864601,-200.789993L-54.828312,-200.783875C-54.805073,-200.779968,-54.778915,-200.775543,-54.755737,-200.771622C-54.732533,-200.767731,-54.706326,-200.763306,-54.683163,-200.759369L-54.646873,-200.75325C-54.605915,-200.746338,-54.61525,-200.747925,-54.574299,-200.740997L-54.540737,-200.734619L-54.507175,-200.728256L-54.473614,-200.721878L-54.440048,-200.7155L-54.406487,-200.709122L-54.372925,-200.702744L-54.339363,-200.696381L-54.305801,-200.690002L-54.271812,-200.67775C-54.249504,-200.669739,-54.226097,-200.661301,-54.203838,-200.653244C-54.203369,-200.653259,-54.033386,-200.59198,-54.033901,-200.591995C-54.033943,-200.592041,-53.931953,-200.555603,-53.932011,-200.555618C-53.90736,-200.546844,-53.888672,-200.540161,-53.864086,-200.531372C-53.864044,-200.531342,-53.762131,-200.494965,-53.762199,-200.494995L-53.728012,-200.479874L-53.693825,-200.464752C-53.665001,-200.451996,-53.654243,-200.447235,-53.62545,-200.434494L-53.591263,-200.419373L-53.557076,-200.404251C-53.513748,-200.385101,-53.531906,-200.393127,-53.488701,-200.373993C-53.462204,-200.361053,-53.452225,-200.356171,-53.4258,-200.343246C-53.425903,-200.343307,-53.331421,-200.297104,-53.331451,-200.297119C-53.304993,-200.28421,-53.29496,-200.279297,-53.268551,-200.266373L-53.237099,-200.251007C-53.237038,-200.250977,-53.173759,-200.214478,-53.173801,-200.214493L-53.142151,-200.196243L-53.1105,-200.177994L-53.07885,-200.159744L-53.047199,-200.141495L-53.015549,-200.123245L-52.983898,-200.104996L-52.954987,-200.086624L-52.926075,-200.068253C-52.911819,-200.059204,-52.882484,-200.040558,-52.868252,-200.031494L-52.839336,-200.013123L-52.810425,-199.994751C-52.796146,-199.985687,-52.766842,-199.967056,-52.752602,-199.957993L-52.723274,-199.933746L-52.693951,-199.9095C-52.693924,-199.9095,-52.635284,-199.861008,-52.6353,-199.860992L-52.605976,-199.836746L-52.576649,-199.8125L-52.547325,-199.788254L-52.518002,-199.764008L-52.488876,-199.74263L-52.459751,-199.721252L-52.430626,-199.699875L-52.401501,-199.678497L-52.372375,-199.65712L-52.34325,-199.635757L-52.314125,-199.61438L-52.285,-199.593002L-52.258411,-199.568619L-52.231827,-199.54425C-52.21653,-199.530228,-52.193947,-199.509521,-52.17865,-199.495499C-52.163353,-199.481476,-52.140724,-199.460724,-52.125477,-199.446747C-52.110222,-199.43277,-52.087563,-199.412003,-52.0723,-199.397995L-52.045513,-199.370621L-52.018726,-199.343246L-51.991936,-199.315872L-51.965149,-199.288498L-51.938362,-199.261124L-51.911575,-199.233749L-51.884789,-199.206375L-51.858002,-199.179001L-51.834164,-199.154373L-51.810326,-199.129745L-51.786488,-199.105118L-51.76265,-199.080505L-51.738811,-199.055878L-51.714973,-199.03125L-51.691139,-199.006622L-51.667301,-198.981995C-51.650642,-198.962891,-51.635796,-198.945831,-51.619175,-198.926743L-51.595112,-198.899124C-51.578499,-198.880066,-51.56356,-198.862915,-51.546986,-198.843872C-51.530434,-198.824875,-51.51545,-198.807663,-51.498863,-198.78862L-51.4748,-198.761002L-51.453289,-198.730377L-51.431774,-198.699753L-51.410263,-198.669128L-51.388748,-198.638504L-51.367237,-198.60788L-51.345726,-198.577255L-51.324211,-198.546631L-51.3027,-198.516006L-51.281387,-198.488251L-51.260075,-198.460495L-51.238762,-198.432755L-51.217449,-198.404999L-51.196136,-198.377243L-51.174824,-198.349503L-51.153511,-198.321747L-51.132198,-198.294006L-51.113411,-198.263123L-51.094624,-198.232254L-51.075836,-198.20137L-51.057049,-198.170502C-51.044537,-198.150055,-51.031891,-198.129257,-51.019474,-198.108749C-51.01947,-198.108734,-50.981873,-198.046936,-50.981899,-198.046997C-50.981689,-198.046692,-50.933716,-197.953735,-50.933826,-197.953995C-50.933838,-197.95401,-50.88562,-197.860809,-50.88575,-197.860992C-50.885727,-197.860947,-50.853683,-197.798981,-50.853699,-197.798996C-50.853577,-197.79892,-50.795471,-197.680023,-50.795475,-197.679993L-50.766361,-197.620499C-50.766357,-197.620514,-50.70813,-197.501495,-50.708138,-197.501495L-50.679024,-197.442001C-50.678894,-197.441711,-50.620667,-197.322815,-50.6208,-197.322998L-50.594227,-197.260498L-50.56765,-197.197998L-50.541077,-197.135498L-50.5145,-197.072998L-50.487926,-197.010498L-50.461349,-196.947998L-50.434776,-196.885498L-50.408199,-196.822998C-50.408081,-196.822693,-50.354492,-196.691711,-50.354626,-196.692001L-50.327839,-196.626495L-50.301048,-196.561005L-50.274261,-196.495499L-50.247475,-196.429993L-50.220688,-196.364502L-50.193901,-196.298996C-50.193115,-196.297241,-50.119873,-196.082886,-50.120514,-196.084869C-50.120117,-196.084351,-50.046387,-195.869751,-50.047127,-195.870743C-50.047119,-195.870468,-49.998047,-195.727463,-49.998199,-195.727997C-49.998291,-195.727905,-49.954346,-195.578308,-49.954327,-195.578751L-49.932388,-195.50412L-49.91045,-195.429504L-49.888512,-195.354874C-49.888489,-195.354874,-49.844543,-195.205521,-49.844639,-195.205627L-49.822701,-195.130997C-49.822998,-195.131531,-49.754639,-194.871887,-49.754375,-194.872253L-49.731602,-194.785995L-49.708824,-194.699753L-49.68605,-194.613495C-49.685974,-194.613327,-49.640442,-194.440781,-49.640499,-194.440994L-49.620049,-194.348755L-49.599602,-194.2565C-49.599365,-194.256592,-49.55835,-194.071411,-49.558701,-194.072006L-49.53825,-193.979752C-49.538086,-193.979858,-49.49707,-193.794556,-49.497349,-193.795258L-49.476898,-193.703003C-49.477051,-193.703979,-49.439941,-193.498901,-49.440224,-193.500504C-49.440186,-193.500671,-49.403564,-193.29718,-49.403549,-193.298004C-49.403809,-193.299438,-49.367188,-193.095947,-49.366875,-193.095505C-49.366943,-193.094482,-49.329834,-192.890991,-49.3302,-192.893005L-49.311024,-192.780121L-49.291851,-192.667252L-49.272675,-192.554382L-49.253502,-192.441498L-49.234325,-192.328629C-49.234375,-192.328522,-49.196045,-192.102844,-49.195976,-192.102875L-49.1768,-191.990005L-49.159527,-191.865372L-49.14225,-191.740753L-49.124973,-191.616119L-49.1077,-191.491501L-49.090424,-191.366882L-49.073151,-191.242249L-49.055874,-191.11763L-49.038601,-190.992996L-48.891899,-189.878006L-48.758801,-188.645996L-48.617298,-187.296997L-48.465698,-185.807999L-48.324299,-184.154007L-48.172699,-182.360992L-48.009399,-180.404007L-47.8326,-178.261002L-47.482498,-173.410995L-46.254601,-156.384003"/>
    <path transform="matrix(0.02009,0.999798,0.999798,-0.02009,-414.797638,508.14093)" style="stroke:#000000;stroke-width:0.05mm;fill:none" d="M-255.811005,-97.222099L-263.093994,-198.115005L-258.596985,-198.440002C-258.593353,-198.406601,-258.589111,-198.373276,-258.584503,-198.339996L-258.578247,-198.289993L-258.571991,-198.240005L-258.565735,-198.190002C-258.562378,-198.162964,-258.556641,-198.116989,-258.553253,-198.089996L-258.546997,-198.039993L-258.535492,-197.990494L-258.523987,-197.940994C-258.517639,-197.913712,-258.507385,-197.869293,-258.501007,-197.841995L-258.489502,-197.792496L-258.477997,-197.742996L-258.466492,-197.693497L-258.454987,-197.643997L-258.438263,-197.594757L-258.421509,-197.545502L-258.404755,-197.496246L-258.388,-197.447006L-258.371246,-197.397751L-258.354492,-197.348495L-258.337738,-197.299255L-258.321014,-197.25C-258.320923,-197.249817,-258.255737,-197.119446,-258.255737,-197.119507C-258.241669,-197.090286,-258.227173,-197.061295,-258.21225,-197.032501L-258.190491,-196.988998C-258.176361,-196.959824,-258.162018,-196.930725,-258.147003,-196.901993L-258.122498,-196.856003C-258.111115,-196.834641,-258.084839,-196.785324,-258.073486,-196.764008C-258.073608,-196.76416,-258.024597,-196.67215,-258.024506,-196.671997L-258,-196.626007L-257.975494,-196.580002L-257.950989,-196.533997L-257.921509,-196.493744L-257.891998,-196.453506L-257.862488,-196.413254C-257.843079,-196.386215,-257.823792,-196.359116,-257.803497,-196.332748L-257.773987,-196.292496C-257.753998,-196.265137,-257.735046,-196.239349,-257.714996,-196.212006C-257.689758,-196.180466,-257.676025,-196.163345,-257.650757,-196.131744C-257.618439,-196.091415,-257.586609,-196.051682,-257.554382,-196.011368C-257.531525,-195.982849,-257.51297,-195.959656,-257.490112,-195.931122L-257.458008,-195.891006L-257.420868,-195.853882L-257.383759,-195.816757L-257.346619,-195.779633L-257.309509,-195.742493L-257.272369,-195.705368L-257.23526,-195.668243L-257.19812,-195.631119L-257.161011,-195.593994L-257.121368,-195.559753C-257.095551,-195.536224,-257.069,-195.513535,-257.042114,-195.491257C-257.021393,-195.473328,-256.983643,-195.44072,-256.96286,-195.422745C-256.933167,-195.397064,-256.873718,-195.345703,-256.843994,-195.320007C-256.843628,-195.319763,-256.591431,-195.130554,-256.59201,-195.130997C-256.537292,-195.089981,-256.562531,-195.108902,-256.507996,-195.067993L-256.463257,-195.036743C-256.403992,-194.995377,-256.432922,-195.015579,-256.373749,-194.974243L-256.32901,-194.942993C-256.269531,-194.901459,-256.298889,-194.921967,-256.239502,-194.880493L-256.194763,-194.849243L-256.149994,-194.817993C-256.094116,-194.785156,-256.02887,-194.746826,-255.973007,-194.714005L-255.928757,-194.688004L-255.884506,-194.662003L-255.840256,-194.636002L-255.796005,-194.610001L-255.748993,-194.584244L-255.701996,-194.558502L-255.654999,-194.532745L-255.608002,-194.507004L-255.561005,-194.481247L-255.514008,-194.455505L-255.466995,-194.429749L-255.419998,-194.404007L-255.370621,-194.380997C-255.337158,-194.366898,-255.304565,-194.350876,-255.271881,-194.335007L-255.222504,-194.311996L-255.173126,-194.289001L-255.123749,-194.266006L-255.074371,-194.242996L-255.024994,-194.220001C-255.024658,-194.219727,-254.731079,-194.114258,-254.731003,-194.114243C-254.698227,-194.102768,-254.665527,-194.091125,-254.632996,-194.078995C-254.600113,-194.067535,-254.567398,-194.055588,-254.534744,-194.043503L-254.485626,-194.025757C-254.453644,-194.014191,-254.419373,-194.001801,-254.387375,-193.99025C-254.355179,-193.978607,-254.321274,-193.966354,-254.289124,-193.954742L-254.240005,-193.936996L-254.188507,-193.922119C-254.188416,-193.922073,-254.085449,-193.892349,-254.085495,-193.89238L-254.033997,-193.877502L-253.982498,-193.862625L-253.931,-193.847748L-253.879501,-193.83287L-253.828003,-193.817993C-253.82724,-193.817871,-253.537018,-193.759277,-253.53775,-193.759506L-253.48938,-193.749756L-253.440994,-193.740005L-253.389877,-193.730499L-253.338745,-193.720993C-253.33876,-193.721008,-253.236496,-193.701996,-253.236496,-193.701996C-253.23642,-193.701965,-253.134247,-193.682983,-253.134247,-193.682999L-253.08313,-193.673492L-253.031998,-193.664001L-252.983994,-193.6595L-252.936005,-193.654999L-252.888,-193.650497L-252.839996,-193.645996L-252.792007,-193.641495L-252.744003,-193.636993C-252.681931,-193.631195,-252.710022,-193.63382,-252.647995,-193.628006L-55.379299,-200.822998"/>
    <path transform="matrix(0.061796,-0.998089,-0.998089,-0.061796,-819.740967,79.643005)" style="stroke:#000000;stroke-width:0.05mm;fill:none" d="M-38.490299,-235.585999C-34.89674,-234.747437,-31.373962,-233.630478,-27.953735,-232.245209C-25.625462,-231.309372,-23.413591,-230.106537,-21.362581,-228.660858C-19.79394,-227.562973,-18.438839,-226.187851,-17.364096,-224.603287C-16.921726,-223.92868,-16.55537,-223.207184,-16.2717,-222.451996L-16.251501,-222.065277C-16.210892,-219.972458,-16.785835,-217.913712,-17.904915,-216.144775C-19.082916,-214.281799,-20.607891,-212.662643,-22.397013,-211.375244C-24.913086,-209.556946,-27.71664,-208.174072,-30.690731,-207.284317C-33.299129,-206.483337,-35.990498,-205.982986,-38.712502,-205.792999L-39.319946,-205.754044C-43.456409,-205.49028,-47.606022,-205.992203,-51.560291,-207.234604C-54.004105,-207.998322,-56.299843,-209.17308,-58.348862,-210.708359C-59.897446,-211.865311,-61.184402,-213.336121,-62.125584,-215.024551C-62.802395,-216.269135,-63.207279,-217.64328,-63.313499,-219.056C-63.443604,-221.142151,-62.939362,-223.218948,-61.867088,-225.013153C-60.815544,-226.772354,-59.437725,-228.31459,-57.807667,-229.556931C-55.601311,-231.245453,-53.143669,-232.577316,-50.524437,-233.503922C-47.036018,-234.750473,-43.388187,-235.494934,-39.6903,-235.714996"/>
    <path transform="matrix(0.061796,-0.998089,-0.998089,-0.061796,-819.740967,79.643005)" style="stroke:#000000;stroke-width:0.05mm;fill:none" d="M-39.769001,-235.712997L-39.769001,-214.421005L-38.3489,-214.421005L-38.3489,-235.585999"/>
    <path transform="matrix(-0.379759,0.925085,0.925085,0.379759,-408.862793,303.643188)" style="stroke:#000000;stroke-width:0.05mm;fill:none" d="M-39.769001,-235.712997L-39.769001,-214.421005L-38.3489,-214.421005L-38.3489,-235.585999"/>
    <path transform="matrix(-0.379759,0.925085,0.925085,0.379759,-408.862793,303.643188)" style="stroke:#000000;stroke-width:0.05mm;fill:none" d="M-38.490299,-235.585999C-34.89674,-234.747437,-31.373962,-233.630478,-27.953735,-232.245209C-25.625462,-231.309372,-23.413591,-230.106537,-21.362581,-228.660858C-19.79394,-227.562973,-18.438839,-226.187851,-17.364096,-224.603287C-16.921726,-223.92868,-16.55537,-223.207184,-16.2717,-222.451996L-16.251501,-222.065277C-16.210892,-219.972458,-16.785835,-217.913712,-17.904915,-216.144775C-19.082916,-214.281799,-20.607891,-212.662643,-22.397013,-211.375244C-24.913086,-209.556946,-27.71664,-208.174072,-30.690731,-207.284317C-33.299129,-206.483337,-35.990498,-205.982986,-38.712502,-205.792999L-39.319946,-205.754044C-43.456409,-205.49028,-47.606022,-205.992203,-51.560291,-207.234604C-54.004105,-207.998322,-56.299843,-209.17308,-58.348862,-210.708359C-59.897446,-211.865311,-61.184402,-213.336121,-62.125584,-215.024551C-62.802395,-216.269135,-63.207279,-217.64328,-63.313499,-219.056C-63.443604,-221.142151,-62.939362,-223.218948,-61.867088,-225.013153C-60.815544,-226.772354,-59.437725,-228.31459,-57.807667,-229.556931C-55.601311,-231.245453,-53.143669,-232.577316,-50.524437,-233.503922C-47.036018,-234.750473,-43.388187,-235.494934,-39.6903,-235.714996"/>
    <path transform="matrix(0.188592,0.982056,0.982056,-0.188592,-372.020813,473.281433)" style="stroke:#000000;stroke-width:0.05mm;fill:none" d="M-275.131989,-52.909698L-275.073273,-52.912998L-275.055878,-52.913975C-275.107025,-52.911072,-275.101837,-52.911377,-275.153015,-52.908501"/>
    <path transform="matrix(0.188592,0.982056,0.982056,-0.188592,-372.020813,473.281433)" style="stroke:#000000;stroke-width:0.05mm;fill:none" d="M-281.924988,-56.8536C-280.688324,-54.400681,-278.162842,-52.866211,-275.416016,-52.898697L-275.153015,-52.908501L-262.28299,-53.630199L-269.960999,-190.554001L-282.830994,-189.832993"/>
    <path transform="matrix(0.188592,0.982056,0.982056,-0.188592,-372.020813,473.281433)" style="stroke:#000000;stroke-width:0.05mm;fill:none" d="M-281.924011,-56.8325L-306.721985,-105.495003L-325.338989,-117.277L-325.421997,-118.757004L-325.506012,-120.257004L-308.321991,-134.024994L-289.121002,-185.175995"/>
    <path transform="matrix(0.188592,0.982056,0.982056,-0.188592,-372.020813,473.281433)" style="stroke:#000000;stroke-width:0.05mm;fill:none" d="M-282.809998,-189.834C-282.783173,-189.835556,-282.759918,-189.836853,-282.733124,-189.838379C-282.76416,-189.836685,-282.799927,-189.834702,-282.830994,-189.832993C-285.655304,-189.669128,-288.115601,-187.850906,-289.101013,-185.199005"/>
    <path transform="matrix(0.997295,0.07325,0.073505,-0.993832,-105.344002,95.228798)" style="stroke:#000000;stroke-width:0.05mm;fill:none" d="M-192.341995,-264.343994L-188.694,-264.411011L-185.046997,-264.477997L-181.401001,-264.503998L-177.757004,-264.507996L-174.113007,-264.490997L-170.468994,-264.473999L-166.828003,-264.414001L-163.186996,-264.334015L-159.546005,-264.252991L-155.886002,-264.128998L-152.246994,-264.006012L-148.608994,-263.862L-144.972,-263.717987L-141.313995,-263.552002L-137.677994,-263.365997L-134.042007,-263.179993L-130.406998,-262.971985L-126.75,-262.764008L-123.115997,-262.536011L-119.481003,-262.328003L-117.328003,-262.166992L-115.027,-261.977997L-112.557999,-261.738007L-109.986,-261.451996L-107.350998,-261.162994L-104.633003,-260.828003L-101.915001,-260.492004L-99.218803,-260.136993L-96.543999,-259.782013L-93.954697,-259.411011L-91.4702,-259.065002L-89.112503,-258.725006L-86.922997,-258.412994L-84.923897,-258.110992L-83.156303,-257.839996L-81.619499,-257.622009L-80.399803,-257.417999C-80.398987,-257.417847,-80.051514,-257.370239,-80.052361,-257.370361C-80.052124,-257.370605,-79.472839,-257.291016,-79.473297,-257.290985C-79.431412,-257.284454,-79.373009,-257.275299,-79.331276,-257.268738C-79.289444,-257.262207,-79.231041,-257.253052,-79.189247,-257.24649C-79.147362,-257.239929,-79.088974,-257.230774,-79.047226,-257.224243C-79.005402,-257.217712,-78.947006,-257.208557,-78.905197,-257.201996L-78.878891,-257.19812L-78.852577,-257.194244L-78.826263,-257.190369L-78.79995,-257.186493L-78.773636,-257.182617L-78.747322,-257.178741L-78.721016,-257.174866L-78.694702,-257.17099C-78.693237,-257.170654,-78.46759,-257.128662,-78.468849,-257.128998L-78.355927,-257.108002C-78.354614,-257.107422,-78.128784,-257.06543,-78.130074,-257.06601L-78.017151,-257.045013L-77.904228,-257.023987L-77.791298,-257.002991L-77.678253,-256.984619L-77.565201,-256.966248L-77.452148,-256.947876L-77.339104,-256.929504L-77.226051,-256.911133L-77.112999,-256.892761L-76.999947,-256.87439L-76.886902,-256.855988L-76.773964,-256.834991L-76.661026,-256.813995L-76.548088,-256.792999L-76.43515,-256.772003L-76.322212,-256.751007L-76.209274,-256.730011L-76.096336,-256.709015L-75.983398,-256.687988C-75.983246,-256.68811,-75.531525,-256.592896,-75.53215,-256.592987C-75.532318,-256.59314,-75.080658,-256.497925,-75.080902,-256.497986L-74.967964,-256.47699L-74.855026,-256.455994L-74.742088,-256.434998L-74.62915,-256.414001L-74.516212,-256.393005L-74.403275,-256.372009L-74.290337,-256.351013L-74.177399,-256.329987L-74.06459,-256.306366L-73.951775,-256.282745L-73.838959,-256.259125L-73.726151,-256.235504C-73.72525,-256.235352,-73.499603,-256.187988,-73.500526,-256.188263L-73.387711,-256.164612L-73.274902,-256.140991L-73.162086,-256.117371L-73.049278,-256.09375L-72.936462,-256.070129L-72.823647,-256.046509L-72.710838,-256.022888L-72.598022,-255.999252C-72.598221,-255.999268,-72.372635,-255.951904,-72.372398,-255.951996C-72.372131,-255.951965,-72.146576,-255.899231,-72.147003,-255.899246C-72.147003,-255.899292,-71.921814,-255.846558,-71.9216,-255.846497C-71.921539,-255.846497,-71.696014,-255.793762,-71.696198,-255.793747C-71.696167,-255.79364,-71.470459,-255.740906,-71.470802,-255.740997C-71.469727,-255.740723,-71.244385,-255.693359,-71.245178,-255.693756L-71.132362,-255.67012L-71.019547,-255.6465L-70.906738,-255.622879C-70.907135,-255.622925,-70.681061,-255.575562,-70.681114,-255.575623L-70.568298,-255.552002L-70.455727,-255.522995L-70.343147,-255.494003L-70.230576,-255.464996L-70.117996,-255.436005L-70.005424,-255.406998L-69.892853,-255.378006L-69.780273,-255.348999L-69.667702,-255.320007C-69.667381,-255.319885,-69.447441,-255.267639,-69.447601,-255.267746L-69.337547,-255.241623L-69.227501,-255.2155L-69.117447,-255.189377L-69.007401,-255.163254L-68.897346,-255.137131L-68.7873,-255.110992C-68.786819,-255.11084,-68.561905,-255.052856,-68.562149,-255.052994C-68.561798,-255.052979,-68.336517,-254.994873,-68.336998,-254.994995C-68.336838,-254.994873,-68.111557,-254.93689,-68.111847,-254.936996C-68.111847,-254.937012,-67.886627,-254.878906,-67.886703,-254.878998L-67.774246,-254.847504L-67.661797,-254.815994L-67.549347,-254.7845L-67.436897,-254.753006L-67.324448,-254.721497L-67.211998,-254.690002L-67.099548,-254.658493L-66.987099,-254.626999L-66.877289,-254.595505L-66.767471,-254.563995L-66.657661,-254.532501L-66.547852,-254.501007L-66.438034,-254.469498L-66.328224,-254.438004L-66.218414,-254.406494L-66.108597,-254.375L-65.998787,-254.343506C-65.998795,-254.343506,-65.778854,-254.280396,-65.77916,-254.280502C-65.778931,-254.280457,-65.559753,-254.21759,-65.55954,-254.217499L-65.449722,-254.186005L-65.339912,-254.154495L-65.230103,-254.123001L-65.120415,-254.088882L-65.010727,-254.054749L-64.901039,-254.02063L-64.791351,-253.986496L-64.681664,-253.952377L-64.571976,-253.918243L-64.462288,-253.884125L-64.3526,-253.850006L-64.242912,-253.815872C-64.242691,-253.815796,-64.0233,-253.747559,-64.023537,-253.74762C-64.023376,-253.747681,-63.694275,-253.645142,-63.694473,-253.645248C-63.694244,-253.645142,-63.475067,-253.576904,-63.475101,-253.576996L-63.365524,-253.540253L-63.255951,-253.503494L-63.146374,-253.466751L-63.0368,-253.429993L-62.927223,-253.39325L-62.81765,-253.356506L-62.708076,-253.319748L-62.598499,-253.283005L-62.489052,-253.243622L-62.379601,-253.204254L-62.270149,-253.164871L-62.160702,-253.125504L-62.05125,-253.086121L-61.941799,-253.046753L-61.832352,-253.00737L-61.7229,-252.968002L-61.6161,-252.928757L-61.5093,-252.889496L-61.4025,-252.85025L-61.2957,-252.811005L-61.1889,-252.771744L-61.0821,-252.732498L-60.9753,-252.693253L-60.8685,-252.654007L-60.787762,-252.623749L-60.707024,-252.593506L-60.626289,-252.563248L-60.545551,-252.533005L-60.464813,-252.502747L-60.384075,-252.472504L-60.303337,-252.442245L-60.222599,-252.412003L-60.139214,-252.381744C-60.139084,-252.381744,-59.972092,-252.321136,-59.972439,-252.321243C-59.972107,-252.321045,-59.722229,-252.230469,-59.722275,-252.230499C-59.722076,-252.230469,-59.555359,-252.169983,-59.5555,-252.169998C-59.555496,-252.169952,-59.388809,-252.104156,-59.388973,-252.104248C-59.388641,-252.104126,-59.222198,-252.038391,-59.22245,-252.038498C-59.222183,-252.038361,-59.055801,-251.972687,-59.055923,-251.972748C-59.055771,-251.972672,-58.889145,-251.906876,-58.8894,-251.906998C-58.889481,-251.907104,-58.723099,-251.83606,-58.723125,-251.835999C-58.723053,-251.835999,-58.556732,-251.764954,-58.55685,-251.764999C-58.55661,-251.764954,-58.390533,-251.694031,-58.390575,-251.694L-58.307438,-251.658493L-58.2243,-251.623001L-58.141048,-251.589996C-58.140793,-251.589905,-57.97435,-251.523926,-57.974548,-251.524002L-57.8913,-251.490997L-57.808048,-251.457993C-57.807877,-251.457916,-57.641403,-251.391937,-57.641548,-251.391998L-57.5583,-251.358994C-57.557983,-251.358826,-57.39209,-251.282654,-57.39225,-251.282745C-57.392303,-251.282806,-57.226166,-251.206512,-57.2262,-251.206497C-57.226044,-251.206406,-57.06015,-251.130234,-57.06015,-251.130249C-57.060059,-251.130188,-56.894226,-251.054016,-56.8941,-251.054001L-56.810963,-251.018372C-56.810944,-251.018372,-56.644745,-250.947144,-56.644688,-250.947128L-56.56155,-250.911499L-56.478413,-250.87587C-56.47847,-250.875916,-56.312149,-250.804626,-56.312138,-250.804626L-56.229,-250.768997L-56.146099,-250.728119C-56.145996,-250.728027,-55.980286,-250.646362,-55.980301,-250.646378L-55.8974,-250.605499L-55.814499,-250.564621L-55.731602,-250.523743C-55.731567,-250.523804,-55.565918,-250.442139,-55.5658,-250.442001L-55.485424,-250.404007L-55.405048,-250.365997L-55.324677,-250.328003L-55.244301,-250.289993L-55.163925,-250.251999L-55.083549,-250.214005L-55.003174,-250.175995L-54.922798,-250.138L-54.842537,-250.097244C-54.842529,-250.097229,-54.681824,-250.015625,-54.682011,-250.015747C-54.682037,-250.015778,-54.521576,-249.934296,-54.521488,-249.93425L-54.441223,-249.893494C-54.441193,-249.893463,-54.280792,-249.812042,-54.280701,-249.811996C-54.280609,-249.81192,-54.120026,-249.730377,-54.120201,-249.730499L-54.039951,-249.689743C-54.039642,-249.689667,-53.87912,-249.608124,-53.879452,-249.608246C-53.879578,-249.608307,-53.719055,-249.526764,-53.718948,-249.526749L-53.638699,-249.485992L-53.561199,-249.442749L-53.4837,-249.399506L-53.4062,-249.356247L-53.328701,-249.313004L-53.251202,-249.269745L-53.173698,-249.226501L-53.096199,-249.183243L-53.0187,-249.139999L-52.943974,-249.094254L-52.869251,-249.048492L-52.794525,-249.002747L-52.719799,-248.957001L-52.645077,-248.911255L-52.570351,-248.865494L-52.495625,-248.819748L-52.420898,-248.774002C-52.420837,-248.773926,-52.271057,-248.687744,-52.271198,-248.687744C-52.271362,-248.687988,-51.971558,-248.515137,-51.971802,-248.515244C-51.971863,-248.515198,-51.822205,-248.429016,-51.822102,-248.429001L-51.752663,-248.383499L-51.683224,-248.337997L-51.613789,-248.292496L-51.54435,-248.246994C-51.54422,-248.246948,-51.405243,-248.155884,-51.405476,-248.156006L-51.336037,-248.110504L-51.266602,-248.065002L-51.197273,-248.016754L-51.127949,-247.968506L-51.058624,-247.920258L-50.9893,-247.871994L-50.919975,-247.823746L-50.850651,-247.775497L-50.781326,-247.727249L-50.712002,-247.679001L-50.647961,-247.631119L-50.583923,-247.583252L-50.519886,-247.53537L-50.455849,-247.487503L-50.391811,-247.439621L-50.327774,-247.391754L-50.263737,-247.343872L-50.199699,-247.296005L-50.138302,-247.248123C-50.138214,-247.248047,-50.015289,-247.152222,-50.015499,-247.152374C-50.015411,-247.152344,-49.892487,-247.056519,-49.8927,-247.056625L-49.831299,-247.008743C-49.831421,-247.00882,-49.708557,-246.912994,-49.7085,-246.912994L-49.649876,-246.862747L-49.591251,-246.8125L-49.532623,-246.762253L-49.473999,-246.712006L-49.415375,-246.661743L-49.35675,-246.611496L-49.298126,-246.561249L-49.239498,-246.511002L-49.183514,-246.460754L-49.127525,-246.410507L-49.071537,-246.360245L-49.015549,-246.309998L-48.959564,-246.25975L-48.903576,-246.209503L-48.847588,-246.159256L-48.791599,-246.108994C-48.791599,-246.108994,-48.77644,-246.092484,-48.776451,-246.092499C-48.768871,-246.08429,-48.761253,-246.076004,-48.753723,-246.067749L-48.746151,-246.059494C-48.741154,-246.054001,-48.735966,-246.048508,-48.730999,-246.042999L-48.723427,-246.034622L-48.715851,-246.026245C-48.708267,-246.017853,-48.700691,-246.009491,-48.693127,-246.001129L-48.685551,-245.992752L-48.677975,-245.984375L-48.670399,-245.975998C-48.670372,-245.975952,-48.655266,-245.959473,-48.655273,-245.959503C-48.655243,-245.959503,-48.632538,-245.934723,-48.632587,-245.934753L-48.625027,-245.926498L-48.617462,-245.918243L-48.609901,-245.910004L-48.602325,-245.901749L-48.594749,-245.893494C-48.589367,-245.887634,-48.584991,-245.882858,-48.579601,-245.876999C-48.574234,-245.87114,-48.569832,-245.866364,-48.564449,-245.860504L-48.556873,-245.852249L-48.549301,-245.843994L-48.541737,-245.835632L-48.534176,-245.827255L-48.526611,-245.818878L-48.519051,-245.810501L-48.511486,-245.802124L-48.503925,-245.793747L-48.496361,-245.78537L-48.4888,-245.776993C-48.488777,-245.776978,-48.473648,-245.760498,-48.473652,-245.760498C-48.466049,-245.752289,-48.458481,-245.744003,-48.450924,-245.735748L-48.443352,-245.727493C-48.443348,-245.727493,-48.428196,-245.710999,-48.4282,-245.710999L-48.42075,-245.700119C-48.420731,-245.700134,-48.405838,-245.678375,-48.405849,-245.678375L-48.398399,-245.667496C-48.398376,-245.667465,-48.383484,-245.645737,-48.383499,-245.645752L-48.376049,-245.634872L-48.368599,-245.623993L-48.363674,-245.615753C-48.363602,-245.615616,-48.348831,-245.590866,-48.3489,-245.591003L-48.343975,-245.582748L-48.33905,-245.574493L-48.334126,-245.566254L-48.329201,-245.557999C-48.329197,-245.557983,-48.314289,-245.536224,-48.314301,-245.536255C-48.314301,-245.536255,-48.291992,-245.503693,-48.29195,-245.503632L-48.2845,-245.492752L-48.27705,-245.481873L-48.2696,-245.470993L-48.264675,-245.462875C-48.261112,-245.456985,-48.258396,-245.452515,-48.254826,-245.446625C-48.251251,-245.44072,-48.24855,-245.436279,-48.244976,-245.430374L-48.240051,-245.422256L-48.235126,-245.414124L-48.230202,-245.406006L-48.222752,-245.395004L-48.215302,-245.384003L-48.207851,-245.373001L-48.200401,-245.362L-48.192951,-245.350998L-48.185501,-245.339996L-48.178051,-245.328995L-48.170601,-245.317993C-48.165565,-245.306717,-48.161224,-245.296997,-48.1562,-245.285751C-48.151367,-245.275024,-48.146568,-245.264252,-48.1418,-245.253494C-48.141815,-245.25351,-48.132187,-245.231979,-48.132198,-245.231995C-48.128502,-245.2258,-48.12603,-245.221695,-48.122326,-245.2155C-48.122314,-245.215485,-48.112396,-245.198944,-48.11245,-245.199005C-48.112453,-245.19899,-48.097652,-245.174255,-48.097637,-245.174255L-48.092701,-245.166L-48.087898,-245.155243L-48.083099,-245.144501L-48.0783,-245.133743L-48.073502,-245.123001L-48.068699,-245.112244C-48.06353,-245.100677,-48.059448,-245.091522,-48.054298,-245.080002C-48.050869,-245.062927,-48.049091,-245.054092,-48.04565,-245.037003C-48.045654,-245.036957,-48.039124,-245.004669,-48.039162,-245.004745L-48.036999,-244.994003C-48.033772,-244.986832,-48.030567,-244.979691,-48.027374,-244.972504L-48.022564,-244.961746L-48.01775,-244.951004C-48.017731,-244.950989,-48.008125,-244.929504,-48.008125,-244.929504C-48.008118,-244.929474,-47.998482,-244.90799,-47.998501,-244.908005L-47.996338,-244.897247C-47.993317,-244.882217,-47.992882,-244.880066,-47.989849,-244.865005C-47.989868,-244.865051,-47.983383,-244.832809,-47.983364,-244.832748L-47.981201,-244.822006L-47.979038,-244.811371L-47.976875,-244.800751L-47.974712,-244.790131C-47.974701,-244.79007,-47.970367,-244.768829,-47.970387,-244.768875L-47.968224,-244.758255L-47.966061,-244.74762L-47.963902,-244.737L-47.961739,-244.726257L-47.959576,-244.7155L-47.957413,-244.704742C-47.952019,-244.677917,-47.952003,-244.677856,-47.946602,-244.651001C-47.946625,-244.651062,-47.942291,-244.629761,-47.942276,-244.629745L-47.940113,-244.619125C-47.940109,-244.619125,-47.935783,-244.597839,-47.935787,-244.59787L-47.933624,-244.58725L-47.931461,-244.57663L-47.929298,-244.565994C-47.925877,-244.548981,-47.924068,-244.539993,-47.92065,-244.522995C-47.917442,-244.50705,-47.917381,-244.506744,-47.914162,-244.490753L-47.911999,-244.479996L-47.914764,-244.41925L-47.917526,-244.358505L-47.920288,-244.297745L-47.92305,-244.237L-47.925812,-244.176254L-47.928574,-244.115494L-47.931339,-244.054749L-47.934101,-243.994003L-47.937225,-243.983505L-47.94035,-243.973007L-47.943474,-243.962494L-47.946602,-243.951996L-47.949726,-243.941498L-47.95285,-243.931L-47.955975,-243.920502L-47.959099,-243.910004L-47.959702,-243.896744L-47.9603,-243.883499C-47.961304,-243.860992,-47.962257,-243.839752,-47.963299,-243.817245L-47.963902,-243.804001L-47.967026,-243.793625L-47.97015,-243.783249L-47.973274,-243.772873L-47.976398,-243.762497L-47.979527,-243.752121L-47.982651,-243.741745L-47.985775,-243.731369L-47.988899,-243.720993L-47.992138,-243.70787L-47.995377,-243.694748L-47.998611,-243.681625C-48.001118,-243.671478,-48.005825,-243.652374,-48.008324,-243.642242L-48.011562,-243.62912L-48.014801,-243.615997L-48.017925,-243.605499L-48.021049,-243.595001L-48.024174,-243.584503L-48.027302,-243.574005C-48.031254,-243.56073,-48.029613,-243.566254,-48.03355,-243.552994L-48.036674,-243.542496L-48.039799,-243.531998C-48.03978,-243.532028,-48.051346,-243.51149,-48.051327,-243.511505C-48.059837,-243.496368,-48.071609,-243.475403,-48.080139,-243.460251L-48.085899,-243.449997L-48.089149,-243.436874L-48.0924,-243.423752L-48.09565,-243.410629L-48.0989,-243.397507L-48.10215,-243.384369L-48.1054,-243.371246L-48.10865,-243.358124L-48.1119,-243.345001L-48.117664,-243.334625L-48.123425,-243.324249L-48.129189,-243.313873L-48.134949,-243.303497L-48.140713,-243.293121L-48.146477,-243.282745L-48.152237,-243.272369L-48.158001,-243.261993L-48.163761,-243.251755L-48.169525,-243.241501L-48.175289,-243.231247C-48.179672,-243.22345,-48.182426,-243.218552,-48.186813,-243.210754L-48.192574,-243.2005L-48.198338,-243.190247L-48.204102,-243.179993L-48.209873,-243.169632L-48.215649,-243.159256L-48.221424,-243.14888L-48.2272,-243.138504L-48.232975,-243.128128L-48.23875,-243.117752L-48.244526,-243.107376L-48.250301,-243.097L-48.255936,-243.089249L-48.261574,-243.081497L-48.267212,-243.073746L-48.27285,-243.065994L-48.278488,-243.058243C-48.283215,-243.051743,-48.285034,-243.04924,-48.289764,-243.042755L-48.295399,-243.035004C-48.300575,-243.028748,-48.307034,-243.020996,-48.312225,-243.014755C-48.318626,-243.00705,-48.322643,-243.002197,-48.329048,-242.994507L-48.337463,-242.984375C-48.345543,-242.97464,-48.354622,-242.963745,-48.362701,-242.953995L-48.368462,-242.943619L-48.374226,-242.933243L-48.379986,-242.922882L-48.38575,-242.912506L-48.391514,-242.90213L-48.397274,-242.891754L-48.403038,-242.881378L-48.408798,-242.871002L-48.417099,-242.863373L-48.4254,-242.855743C-48.425396,-242.855743,-48.442005,-242.840515,-48.442001,-242.8405L-48.450298,-242.83287C-48.450287,-242.832886,-48.466888,-242.817642,-48.4669,-242.817627L-48.475201,-242.809998C-48.50412,-242.779617,-48.518539,-242.764465,-48.547523,-242.733994C-48.547485,-242.734024,-48.656006,-242.62001,-48.656013,-242.619995C-48.656006,-242.620026,-48.764526,-242.506012,-48.7645,-242.505997L-48.797886,-242.470367C-48.797821,-242.470413,-48.864624,-242.399155,-48.864662,-242.399124L-48.898048,-242.363495C-48.929131,-242.330322,-48.933693,-242.32547,-48.964825,-242.292252L-48.998211,-242.256622L-49.031601,-242.220993L-49.067524,-242.188248L-49.103451,-242.155502L-49.139374,-242.122757C-49.183884,-242.082153,-49.166672,-242.09787,-49.211224,-242.057251L-49.24715,-242.024506L-49.283073,-241.991745L-49.319,-241.959C-49.318954,-241.959045,-49.385513,-241.89328,-49.385551,-241.89325C-49.416481,-241.862701,-49.421135,-241.858109,-49.452099,-241.827499C-49.452057,-241.82753,-49.518616,-241.761795,-49.51865,-241.761749C-49.5495,-241.731293,-49.554306,-241.726563,-49.585201,-241.695999C-49.585144,-241.696075,-49.657013,-241.63028,-49.657051,-241.630249C-49.656982,-241.630295,-49.728851,-241.564529,-49.728901,-241.564499C-49.728882,-241.564545,-49.800751,-241.498779,-49.800751,-241.498749C-49.800735,-241.498779,-49.872574,-241.433014,-49.872601,-241.432999C-49.90332,-241.402649,-49.908417,-241.397614,-49.939152,-241.367249C-49.939095,-241.367294,-50.005653,-241.301559,-50.005699,-241.301498C-50.036331,-241.27124,-50.04158,-241.266052,-50.07225,-241.235748C-50.072212,-241.235779,-50.138741,-241.170044,-50.138802,-241.169998C-50.138748,-241.170044,-50.210373,-241.109528,-50.2104,-241.109497C-50.238754,-241.085541,-50.253601,-241.072998,-50.282001,-241.048996C-50.282021,-241.048981,-50.353584,-240.988495,-50.3536,-240.988495C-50.381908,-240.9646,-50.396832,-240.951996,-50.425201,-240.927994C-50.425156,-240.928055,-50.532852,-240.829819,-50.532936,-240.829742C-50.532944,-240.829773,-50.604752,-240.764282,-50.604763,-240.764252L-50.640675,-240.731506L-50.676586,-240.698746L-50.712502,-240.666L-50.748314,-240.63588L-50.784126,-240.605743L-50.819939,-240.575623L-50.855751,-240.545502L-50.891563,-240.515381L-50.927376,-240.485245L-50.963188,-240.455124L-50.999001,-240.425003L-51.037437,-240.394882L-51.075874,-240.364746L-51.114311,-240.334625L-51.152748,-240.304504L-51.191189,-240.274368L-51.229626,-240.244247L-51.268063,-240.214127L-51.306499,-240.184006L-51.345062,-240.151382L-51.383625,-240.118744L-51.422188,-240.086121L-51.460751,-240.053497L-51.499313,-240.020874L-51.537876,-239.988251L-51.576439,-239.955627L-51.615002,-239.923004L-51.65345,-239.893005L-51.691898,-239.863007L-51.73035,-239.832993L-51.768799,-239.802994L-51.807251,-239.772995L-51.845699,-239.742996L-51.884151,-239.712997L-51.9226,-239.682999L-51.963799,-239.650375L-52.005001,-239.617752L-52.0462,-239.585129L-52.087399,-239.552505L-52.128601,-239.519882L-52.1698,-239.487244L-52.210999,-239.45462L-52.252201,-239.421997L-52.2934,-239.389496L-52.334599,-239.356995L-52.375801,-239.324493C-52.37571,-239.32457,-52.458138,-239.259567,-52.458199,-239.259506L-52.499401,-239.227005L-52.5406,-239.194504L-52.581799,-239.162003L-52.625774,-239.126877L-52.66975,-239.091751L-52.713726,-239.056625L-52.757702,-239.0215L-52.801674,-238.986374L-52.84565,-238.951248L-52.889626,-238.916122L-52.933601,-238.880997L-52.980213,-238.845993C-52.980186,-238.846039,-53.073326,-238.776093,-53.073437,-238.776001L-53.120049,-238.740997L-53.166664,-238.705994C-53.166695,-238.705994,-53.259895,-238.636017,-53.259888,-238.636002L-53.306499,-238.600998C-53.306274,-238.601074,-53.404663,-238.531616,-53.405025,-238.531494C-53.404297,-238.531982,-53.553223,-238.427002,-53.552811,-238.427246C-53.552734,-238.427246,-53.700439,-238.323242,-53.7006,-238.322998C-53.7006,-238.322983,-53.799232,-238.248093,-53.799351,-238.248001L-53.848724,-238.210495C-53.848663,-238.210571,-53.947479,-238.135529,-53.947475,-238.135498C-53.947342,-238.13562,-54.046158,-238.060547,-54.046227,-238.060501L-54.0956,-238.022995L-54.147736,-237.983002L-54.199875,-237.942993L-54.252014,-237.903L-54.30415,-237.863007L-54.356289,-237.822998L-54.408424,-237.783005L-54.460564,-237.742996L-54.512699,-237.703003L-54.567474,-237.663132L-54.62225,-237.623245L-54.677025,-237.583374L-54.7318,-237.543503L-54.786575,-237.503632L-54.841351,-237.463745L-54.896126,-237.423874L-54.950901,-237.384003L-55.052189,-237.311752L-55.153477,-237.239502L-55.254761,-237.167252L-55.356049,-237.095001L-55.457336,-237.022751L-55.558624,-236.9505L-55.659912,-236.87825L-55.7612,-236.806L-55.859699,-236.736252L-55.958199,-236.666504L-56.056702,-236.596756L-56.155201,-236.526993L-56.2537,-236.457245L-56.3522,-236.387497L-56.450699,-236.317749L-56.549198,-236.248001L-56.650364,-236.178497L-56.751526,-236.108994C-56.751404,-236.109192,-56.953918,-235.970032,-56.95385,-235.970001L-57.055012,-235.900497L-57.156174,-235.830994C-57.156128,-235.831055,-57.358643,-235.692017,-57.358501,-235.692001L-57.459648,-235.622375L-57.560799,-235.55275L-57.661949,-235.483124L-57.7631,-235.413498L-57.86425,-235.343872L-57.965401,-235.274246L-58.066551,-235.20462L-58.167702,-235.134995C-58.167725,-235.13501,-58.374634,-235.001831,-58.37505,-235.001495C-58.374939,-235.001526,-58.582458,-234.867859,-58.582401,-234.867996C-58.582153,-234.868225,-58.789673,-234.734558,-58.789749,-234.734497C-58.789307,-234.73468,-58.996826,-234.601135,-58.997101,-234.600998L-59.100777,-234.534119C-59.101135,-234.533875,-59.308044,-234.40033,-59.308125,-234.400375L-59.4118,-234.333496C-59.41153,-234.333679,-59.618988,-234.19989,-59.619148,-234.199753L-59.722824,-234.132874L-59.8265,-234.065994C-59.826294,-234.06604,-60.033691,-233.937622,-60.033627,-233.937744C-60.03363,-233.937683,-60.240295,-233.809753,-60.240749,-233.809494C-60.240723,-233.809509,-60.447998,-233.681091,-60.447876,-233.681244C-60.448059,-233.681152,-60.654846,-233.553101,-60.654999,-233.552994C-60.654602,-233.553284,-60.861633,-233.42511,-60.862125,-233.424744C-60.861694,-233.424988,-61.06897,-233.296692,-61.069248,-233.296494C-61.069153,-233.296631,-61.27655,-233.168213,-61.276375,-233.168243C-61.276489,-233.168091,-61.483643,-233.039795,-61.483501,-233.039993L-61.589699,-232.975998L-61.6959,-232.912003L-61.802101,-232.848007L-61.908298,-232.783997L-62.0145,-232.720001L-62.120701,-232.656006L-62.226898,-232.591995L-62.333099,-232.528C-62.332825,-232.528198,-62.544983,-232.405151,-62.54525,-232.404999C-62.544556,-232.405273,-62.756836,-232.282227,-62.757401,-232.281998C-62.757385,-232.281982,-62.969666,-232.158936,-62.969551,-232.158997C-62.969604,-232.159058,-63.181396,-232.036255,-63.181702,-232.035995L-63.287788,-231.974625L-63.393875,-231.913254L-63.499962,-231.851868L-63.606049,-231.790497L-63.712139,-231.729126L-63.818226,-231.667755L-63.924313,-231.606369L-64.030403,-231.544998L-64.13636,-231.486252L-64.242325,-231.427505C-64.242432,-231.427368,-64.454224,-231.309937,-64.454247,-231.309998L-64.560211,-231.251251L-64.666176,-231.192505L-64.772141,-231.133743L-64.878098,-231.074997L-64.986824,-231.013748L-65.095551,-230.952499L-65.204277,-230.891251L-65.313004,-230.830002L-65.421722,-230.768753L-65.530449,-230.707504L-65.639175,-230.646255L-65.747902,-230.585007L-65.856377,-230.529007L-65.964851,-230.473007L-66.073326,-230.417007L-66.181801,-230.360992L-66.290276,-230.304993L-66.39875,-230.248993L-66.507225,-230.192993L-66.6157,-230.136993L-66.724312,-230.078369L-66.832924,-230.019745L-66.941536,-229.961121L-67.050148,-229.902496L-67.15876,-229.843872L-67.267372,-229.785248L-67.375984,-229.726624L-67.484596,-229.667999L-67.593086,-229.612L-67.701576,-229.556L-67.810066,-229.5L-67.918549,-229.444L-68.027039,-229.388L-68.135529,-229.332001L-68.244011,-229.276001L-68.352501,-229.220001L-68.463501,-229.166748L-68.574501,-229.113495C-68.574158,-229.113708,-68.796204,-229.007263,-68.796501,-229.007004L-68.907501,-228.953751L-69.018501,-228.900497L-69.129501,-228.847244L-69.240501,-228.794006L-69.351509,-228.740753L-69.462524,-228.6875L-69.57354,-228.634247L-69.684547,-228.580994C-69.684082,-228.581177,-69.906067,-228.474731,-69.906578,-228.474503L-70.017586,-228.421249L-70.128601,-228.367996L-70.236961,-228.314743C-70.237091,-228.314697,-70.453705,-228.208252,-70.45369,-228.208252L-70.56205,-228.154999L-70.67041,-228.101746L-70.778778,-228.048492C-70.779083,-228.048401,-70.995514,-227.942078,-70.995499,-227.942001C-70.995483,-227.94165,-71.216919,-227.835693,-71.217522,-227.835495C-71.21756,-227.835449,-71.439423,-227.729004,-71.439552,-227.729004L-71.55056,-227.675751L-71.661575,-227.622498L-71.772591,-227.569244L-71.883598,-227.516006L-71.935013,-227.491745L-71.986427,-227.467499L-72.037834,-227.443253L-72.089249,-227.419006L-72.140663,-227.394745L-72.192078,-227.370499L-72.243484,-227.346252L-72.294899,-227.322006L-72.346199,-227.300507L-72.397499,-227.279007L-72.448799,-227.257507L-72.500099,-227.235992L-72.551399,-227.214493L-72.602699,-227.192993L-72.653999,-227.171494L-72.705299,-227.149994L-72.756721,-227.12587L-72.808151,-227.101746L-72.859573,-227.077621L-72.911003,-227.053497L-72.962425,-227.029373L-73.013847,-227.005249L-73.065277,-226.981125L-73.116699,-226.957001L-73.167999,-226.935501L-73.219299,-226.914001L-73.270599,-226.892502L-73.321899,-226.871002L-73.373199,-226.849503L-73.4245,-226.828003L-73.4758,-226.806503L-73.5271,-226.785004L-73.578514,-226.76088L-73.629929,-226.736755C-73.629883,-226.736755,-73.732727,-226.688477,-73.73275,-226.688507C-73.771042,-226.670517,-73.797256,-226.658218,-73.835571,-226.640244L-73.886986,-226.616119L-73.9384,-226.591995L-73.9897,-226.570496L-74.041,-226.548996L-74.0923,-226.527496L-74.1436,-226.505997L-74.194901,-226.484497L-74.246201,-226.462997L-74.297501,-226.441498L-74.348801,-226.419998L-74.400101,-226.398499L-74.451401,-226.376999L-74.502701,-226.355499L-74.554001,-226.334L-74.605301,-226.3125L-74.656601,-226.291L-74.707901,-226.269501L-74.759201,-226.248001L-74.813263,-226.223999L-74.867325,-226.199997L-74.921387,-226.175995L-74.975449,-226.151993C-74.975433,-226.152008,-75.083588,-226.104004,-75.083572,-226.104004L-75.137634,-226.080002L-75.191704,-226.056C-75.191483,-226.056091,-75.345291,-225.991272,-75.345596,-225.991119C-75.345032,-225.991333,-75.601379,-225.883179,-75.602097,-225.882996L-75.653397,-225.861496L-75.704697,-225.839996L-75.755997,-225.818497L-75.807297,-225.796997L-75.858597,-225.775497L-75.909897,-225.753998L-75.961197,-225.732498L-76.012497,-225.710999L-76.063797,-225.689499L-76.115097,-225.667999L-76.166397,-225.6465L-76.217697,-225.625L-76.268997,-225.6035L-76.320297,-225.582001L-76.371597,-225.560501L-76.422897,-225.539001L-76.476837,-225.517624C-76.531685,-225.495911,-76.529762,-225.496674,-76.584709,-225.474869C-76.584671,-225.474915,-76.692612,-225.432159,-76.692589,-225.432129L-76.746529,-225.410751L-76.800461,-225.389374L-76.854401,-225.367996L-76.905579,-225.349121L-76.956749,-225.330246L-77.007927,-225.311371L-77.059097,-225.292496L-77.110275,-225.273621L-77.161453,-225.254745L-77.212624,-225.23587L-77.263802,-225.216995L-77.315102,-225.195496L-77.366402,-225.173996L-77.417702,-225.152496L-77.469002,-225.130997L-77.520302,-225.109497L-77.571602,-225.087997L-77.622902,-225.066498L-77.674202,-225.044998L-77.728149,-225.023621L-77.782097,-225.002243C-77.823669,-224.985779,-77.848419,-224.975983,-77.889999,-224.959503L-77.943947,-224.938126L-77.997902,-224.916748L-78.051849,-224.89537L-78.105797,-224.873993L-78.156975,-224.855118L-78.208153,-224.836243L-78.259323,-224.817368L-78.310501,-224.798492C-78.310425,-224.798538,-78.412781,-224.760818,-78.412849,-224.760757L-78.464027,-224.741882L-78.515198,-224.723007L-78.569138,-224.70163L-78.623077,-224.680252L-78.67701,-224.658875L-78.730949,-224.637497L-78.784889,-224.616119C-78.784943,-224.616104,-78.892822,-224.573349,-78.892761,-224.57338L-78.946701,-224.552002L-78.997887,-224.533127L-79.049072,-224.514252C-79.048981,-224.514282,-79.151276,-224.476563,-79.151451,-224.476501L-79.202637,-224.457626L-79.253822,-224.438751C-79.253693,-224.438843,-79.356079,-224.401123,-79.356201,-224.401001L-79.410141,-224.379623C-79.41008,-224.379669,-79.51796,-224.336884,-79.518013,-224.336868L-79.571953,-224.315506L-79.625885,-224.294128L-79.679825,-224.272751C-79.679779,-224.272858,-79.78775,-224.230011,-79.787697,-224.229996L-79.838875,-224.211121L-79.890053,-224.192245L-79.941223,-224.17337L-79.992401,-224.154495L-80.043571,-224.13562L-80.094749,-224.116745L-80.145927,-224.09787L-80.197098,-224.078995L-82.223198,-223.324005L-84.248199,-222.589005L-86.293503,-221.876999L-88.338699,-221.164993L-90.383003,-220.473007L-92.447502,-219.804001L-94.490799,-219.134003L-96.554298,-218.487L-98.638,-217.860992L-100.721001,-217.255997L-102.780998,-216.671997L-104.883003,-216.110001L-106.962997,-215.569L-109.064003,-215.029007L-111.163002,-214.531006L-113.281998,-214.054993L-115.378998,-213.619995L-117.496002,-213.186996L-119.633003,-212.796005L-121.747002,-212.425995L-123.987999,-212.061996L-126.25,-211.718994L-128.488998,-211.397003L-130.748993,-211.097L-133.007996,-210.819L-135.285995,-210.561996L-137.542007,-210.345993L-139.819,-210.132004L-142.093994,-209.960007L-144.369003,-209.787994L-146.641998,-209.658005L-148.914001,-209.548996L-151.184998,-209.460999L-153.477005,-209.395996L-155.746002,-209.350998L-158.035004,-209.328003L-160.302994,-209.324997L-162.589996,-209.343994L-164.854004,-209.404007L-164.962494,-209.40625L-165.070999,-209.408493C-165.071014,-209.408508,-165.28775,-209.413025,-165.287994,-209.412994C-165.288071,-209.413025,-165.504791,-209.417542,-165.505005,-209.417496C-165.504898,-209.417603,-165.721832,-209.422119,-165.720993,-209.425995L-167.257004,-209.423996L-195.244003,-210.421997L-248.233002,-211.561005L-250.440994,-211.444L-252.617004,-211.117996L-254.761002,-210.557007L-256.828003,-209.802002L-258.799011,-208.852005L-305.526001,-183.589005L-308.677002,-182.289001L-311.962006,-181.313004L-315.296997,-180.656998L-318.703003,-180.300995L-322.11499,-180.283997L-333.28299,-180.720001L-320.601013,-214.138"/>
    <path transform="matrix(0.997295,0.143885,0.073505,-1.95217,-67.967102,-130.042007)" style="stroke:#000000;stroke-width:0.05mm;fill:none" d="M-189.466003,-245.106003L-189.464005,-247.315994L-159.535995,-244.759003L-159.537994,-242.548996L-189.466003,-245.106003z"/>
    <path transform="matrix(0.997295,0.073505,0.073505,-0.997295,-105.344002,94.688103)" style="stroke:#000000;stroke-width:0.05mm;fill:none" d="M-72.103897,-227.294006L-72.101265,-227.293869L-72.098625,-227.293747L-72.095985,-227.293625L-72.093353,-227.293503L-72.090714,-227.293381C-72.090698,-227.29335,-72.082794,-227.293015,-72.082802,-227.292999L-72.082916,-227.290375C-72.08313,-227.285629,-72.083267,-227.281998,-72.083473,-227.277252L-72.083588,-227.274628L-72.083702,-227.272003L-72.086334,-227.272003L-72.088974,-227.272003L-72.091614,-227.272003L-72.094254,-227.272003L-72.096886,-227.272003L-72.099525,-227.272003L-72.102165,-227.272003L-72.104797,-227.272003L-72.104691,-227.27475L-72.104576,-227.277496M-72.104347,-227.283005L-72.10424,-227.285751L-72.104126,-227.288498L-72.104012,-227.291245L-72.103897,-227.294006"/>
    <path transform="matrix(0.009816,-0.999952,0.999952,0.009816,-402.502991,944.380005)" style="stroke:#000000;stroke-width:0.05mm;fill:none" d="M629.850952,202.636414L629.829834,202.636414L629.829834,202.615234L629.850952,202.615234L629.850952,202.636414z"/>
    <path transform="matrix(0.997295,0.073505,0.073505,-0.997295,-105.344002,94.688103)" style="stroke:#000000;stroke-width:0.05mm;fill:none" d="M-121.764999,-245.660004L-121.587997,-248.154007L-222.212997,-256.846008L-222.509003,-254.363007L-121.764999,-245.660004z"/>
    <path transform="matrix(0.997295,0.073505,0.073505,-0.997295,-105.344002,94.688103)" style="stroke:#000000;stroke-width:0.05mm;fill:none" d="M-72.314796,-227.421005C-72.314796,-227.42099,-72.309525,-227.420746,-72.309525,-227.420746M-72.304253,-227.420502L-72.301613,-227.42038C-72.30162,-227.42038,-72.296349,-227.42012,-72.296341,-227.42012L-72.293701,-227.419998L-72.293571,-227.422623L-72.293449,-227.425247L-72.293327,-227.427872C-72.29332,-227.427872,-72.292953,-227.435745,-72.292953,-227.435745L-72.292824,-227.43837L-72.292702,-227.440994L-72.295349,-227.441132L-72.297997,-227.441254L-72.300652,-227.441376L-72.303299,-227.441498C-72.303223,-227.441498,-72.313789,-227.441986,-72.313904,-227.442001L-72.314011,-227.439377L-72.314125,-227.436752L-72.31424,-227.434128L-72.314346,-227.431503L-72.314461,-227.428879L-72.314575,-227.426254L-72.31469,-227.42363L-72.314796,-227.421005"/>
    <path transform="matrix(0.997295,0.073505,0.073505,-0.997295,-105.344002,94.688103)" style="stroke:#000000;stroke-width:0.05mm;fill:none" d="M-320.601013,-214.151001L-319.319,-243.406998L-275.864014,-241.733002L-275.757996,-243.229004L-319.223999,-244.904007"/>
    <path transform="matrix(0.997994,0.070158,0.070276,-0.996471,-105.982002,94.079102)" style="stroke:#000000;stroke-width:0.05mm;fill:none" d="M-318.572998,-259.453003L-316.377991,-259.756989L-314.20401,-260.040985L-312.031006,-260.303986L-309.835999,-260.588013L-307.662994,-260.851013L-305.468994,-261.113007L-303.274994,-261.375L-301.102997,-261.615997L-298.908997,-261.856995L-296.716003,-262.097992L-294.52301,-262.338989L-292.35199,-262.559998L-290.160004,-262.779999L-287.967987,-262.998993L-285.776001,-263.218994L-283.584015,-263.417999L-281.393005,-263.615997L-279.201996,-263.815002L-277.011993,-263.992004L-274.820007,-264.19101L-273.354004,-264.295013L-271.886993,-264.398987L-270.441986,-264.503998L-268.997009,-264.587006L-267.553009,-264.67099L-266.128998,-264.756012L-264.686005,-264.817993L-263.240997,-264.902008L-261.799011,-264.942993L-260.355011,-265.006012L-258.911011,-265.067993L-257.447998,-265.109009L-255.983994,-265.148987L-254.518997,-265.210999L-253.033997,-265.25L-251.528,-265.289001L-250.022003,-265.326996L-248.494995,-265.36499L-246.945999,-265.423004L-245.376007,-265.459015L-192.389999,-264.278992"/>
    <path transform="matrix(0.997295,0.076784,0.073505,-1.04178,-105.421997,84.347099)" style="stroke:#000000;stroke-width:0.05mm;fill:none" d="M-319.199005,-245.475998L-318.572998,-259.473999"/>
    <path transform="matrix(-0.987798,0.15574,0.15574,0.987798,396.727295,222.419556)" style="stroke:#000000;stroke-width:0.05mm;fill:none" d="M851.913208,39.900681L851.920105,42.40097L954.690063,43.673019L954.804749,41.174973L851.913208,39.900681z"/>
    <path transform="matrix(-0.987798,0.15574,0.15574,0.987798,396.727295,222.419556)" style="stroke:#000000;stroke-width:0.05mm;fill:none" d="M808.526917,54.094849L808.819519,54.107056L809.611206,54.146301L810.896301,54.19165L812.600281,54.287415L814.734497,54.370361L817.195862,54.485352L819.978394,54.611755L823.019104,54.73053L826.295044,54.86322L829.743164,54.990723L833.340332,55.134766L837.046631,55.254578L840.781555,55.373596L844.53949,55.47113L848.297424,55.568542L851.929138,55.62793L855.474792,55.68988L858.86554,55.7146L862.015381,55.704712L864.95874,55.680054L869.904358,55.575073L874.855835,55.490784L879.8302,55.38501L884.77594,55.28009L889.715881,55.154297L894.655823,55.028625L899.618835,54.881287L904.547363,54.714111L909.475891,54.546936L914.398682,54.359009L919.35022,54.170105L924.261536,53.940735L929.172913,53.711243L934.078552,53.461182L938.972717,53.169617L943.866943,52.878113L948.755432,52.565735L953.638184,52.232788L958.50946,51.858215L963.456299,51.440674"/>
    <path transform="matrix(-0.987798,0.15574,0.15574,0.987798,396.727295,222.419556)" style="stroke:#000000;stroke-width:0.05mm;fill:none" d="M901.153015,0.000549L900.213989,0.032715L897.763184,0.1026L895.289917,0.218567L892.839844,0.357178L890.367004,0.51886L887.917358,0.703308L885.445068,0.910828L882.99585,1.141052L880.546814,1.394226L878.098022,1.670349L875.649719,1.992188L873.201416,2.314026L870.75354,2.681702L868.328613,3.049194L865.881165,3.462708L863.456909,3.898926L861.032898,4.358032L858.631958,4.839783L856.208313,5.344666L853.807861,5.872314L851.5448,6.39856L849.259155,6.947937L846.996765,7.542908L844.757324,8.137695L842.495483,8.778503L840.256714,9.441956L838.018372,10.151245L835.802979,10.860352L833.564819,11.59259L831.372803,12.347168L829.158081,13.125L826.943604,13.925781L824.752197,14.749207L822.583984,15.595215L820.392883,16.441528L818.224792,17.310547L816.057068,18.202393L813.889221,19.094299L811.744629,20.008911L809.600159,20.94635L809.166687,21.133911L808.710571,21.344543L808.2771,21.532166L807.820923,21.742798L807.387451,21.930359L806.931274,22.141052L806.498047,22.351501L806.064575,22.539001L805.608459,22.749695L805.175171,22.960205L804.741943,23.170532L804.308716,23.381042L803.852783,23.614685L803.419556,23.825134L802.986328,24.035583L802.553345,24.268921L802.119995,24.47937L801.687012,24.712769L801.253784,24.923157L800.82074,25.156555"/>
    <path transform="matrix(-0.987798,0.15574,0.15574,0.987798,396.727295,222.419556)" style="stroke:#000000;stroke-width:0.05mm;fill:none" d="M901.091797,-0.024963L963.545776,51.481384"/>
    <path transform="matrix(-0.987798,0.15574,0.15574,0.987798,396.727295,222.419556)" style="stroke:#000000;stroke-width:0.05mm;fill:none" d="M800.820801,25.156433L799.726929,25.689392L798.85144,26.123596L798.015747,26.573608L797.164856,27.069519L796.335815,27.585815L795.507446,28.123291L794.678467,28.639648L793.85083,29.198181L793.043701,29.734863L792.237305,30.292725L791.430908,30.850525L790.625305,31.429688L789.84082,32.007874L789.056335,32.586121L788.272583,33.185547L787.488831,33.785034L786.72699,34.404846L785.965088,35.024719L785.224487,35.643738L784.463318,36.28479L784.052124,36.638123L783.662109,36.990662L783.29248,37.32135L782.92218,37.630981L782.572998,37.939697L782.244873,38.247803L781.937256,38.533936L781.6297,38.820129L781.342407,39.084351L781.055908,39.369751L780.768738,39.634094L780.502686,39.897522L780.237366,40.18219L779.971252,40.44574L779.727112,40.729614L779.461792,41.014343L779.217651,41.298218L778.952271,41.582947L778.708862,41.888L778.445007,42.214905L778.383789,42.28064L778.344482,42.366638L778.283997,42.453552L778.243958,42.518433L778.204712,42.604614L778.165283,42.690674L778.125977,42.776794L778.108521,42.883301L778.069092,42.969482L778.051025,43.054871L778.033569,43.161377L778.01532,43.246765L778.019043,43.352539L778.000854,43.437988L778.017944,43.924561L778.042114,44.008423L778.066284,44.092407L778.090454,44.176208L778.114502,44.260132L778.138672,44.343933L778.184021,44.427063L778.208191,44.510986L778.253418,44.594238L778.297913,44.656128L778.34314,44.739319L778.409668,44.821716L778.454102,44.883728L778.520569,44.966125L778.565063,45.028076L778.631531,45.110535L778.697205,45.171753L778.762939,45.23291L778.828613,45.294128L778.894287,45.355347L778.960022,45.416565L779.025757,45.477722L779.504517,45.842102L780.004395,46.205872L780.52478,46.547546L781.066284,46.88855L781.650024,47.228149L782.233093,47.546448L782.857727,47.842224L783.483093,48.159119L784.128845,48.454102L784.794983,48.727173L785.461182,49.000305L786.126648,49.252197L786.813965,49.524536L787.499756,49.754578L788.186401,50.005737L788.87146,50.2146L789.557312,50.444641L790.242432,50.653503L790.926758,50.841248L791.589966,51.029724L792.466919,51.274292L793.365051,51.518005L794.262451,51.740662L795.159119,51.942017L796.055725,52.143494L796.95166,52.323792L797.847534,52.504089L798.764587,52.683655L799.680847,52.842041L800.575256,52.97998L801.491577,53.138367L802.406433,53.254456L803.32196,53.391663L804.236755,53.507751L805.194702,53.666931L806.05481,53.783447L806.948059,53.899536L807.846008,54.021423L808.526855,54.094666"/>
    <path transform="matrix(1.00752,-0.014372,-0.233699,-1.93953,-336.47702,-88.209991)" style="stroke:#000000;stroke-width:0.05mm;fill:none" d="M-189.466003,-245.106003L-189.464005,-247.315994L-159.535995,-244.759003L-159.537994,-242.548996L-189.466003,-245.106003z"/>
    <path transform="matrix(0.987798,0.15574,-0.15574,0.987798,-1125.727295,19.419342)" style="stroke:#000000;stroke-width:0.05mm;fill:none" d="M851.913208,39.900681L851.920105,42.40097L954.690063,43.673019L954.804749,41.174973L851.913208,39.900681z"/>
    <path transform="matrix(0.987798,0.15574,-0.15574,0.987798,-1125.727295,19.419342)" style="stroke:#000000;stroke-width:0.05mm;fill:none" d="M808.526917,54.094849L808.819519,54.107056L809.611206,54.146301L810.896301,54.19165L812.600281,54.287415L814.734497,54.370361L817.195862,54.485352L819.978394,54.611755L823.019104,54.73053L826.295044,54.86322L829.743164,54.990723L833.340332,55.134766L837.046631,55.254578L840.781555,55.373596L844.53949,55.47113L848.297424,55.568542L851.929138,55.62793L855.474792,55.68988L858.86554,55.7146L862.015381,55.704712L864.95874,55.680054L869.904358,55.575073L874.855835,55.490784L879.8302,55.38501L884.77594,55.28009L889.715881,55.154297L894.655823,55.028625L899.618835,54.881287L904.547363,54.714111L909.475891,54.546936L914.398682,54.359009L919.35022,54.170105L924.261536,53.940735L929.172913,53.711243L934.078552,53.461182L938.972717,53.169617L943.866943,52.878113L948.755432,52.565735L953.638184,52.232788L958.50946,51.858215L963.456299,51.440674"/>
    <path transform="matrix(0.987798,0.15574,-0.15574,0.987798,-1125.727295,19.419342)" style="stroke:#000000;stroke-width:0.05mm;fill:none" d="M901.153015,0.000549L900.213989,0.032715L897.763184,0.1026L895.289917,0.218567L892.839844,0.357178L890.367004,0.51886L887.917358,0.703308L885.445068,0.910828L882.99585,1.141052L880.546814,1.394226L878.098022,1.670349L875.649719,1.992188L873.201416,2.314026L870.75354,2.681702L868.328613,3.049194L865.881165,3.462708L863.456909,3.898926L861.032898,4.358032L858.631958,4.839783L856.208313,5.344666L853.807861,5.872314L851.5448,6.39856L849.259155,6.947937L846.996765,7.542908L844.757324,8.137695L842.495483,8.778503L840.256714,9.441956L838.018372,10.151245L835.802979,10.860352L833.564819,11.59259L831.372803,12.347168L829.158081,13.125L826.943604,13.925781L824.752197,14.749207L822.583984,15.595215L820.392883,16.441528L818.224792,17.310547L816.057068,18.202393L813.889221,19.094299L811.744629,20.008911L809.600159,20.94635L809.166687,21.133911L808.710571,21.344543L808.2771,21.532166L807.820923,21.742798L807.387451,21.930359L806.931274,22.141052L806.498047,22.351501L806.064575,22.539001L805.608459,22.749695L805.175171,22.960205L804.741943,23.170532L804.308716,23.381042L803.852783,23.614685L803.419556,23.825134L802.986328,24.035583L802.553345,24.268921L802.119995,24.47937L801.687012,24.712769L801.253784,24.923157L800.82074,25.156555"/>
    <path transform="matrix(0.987798,0.15574,-0.15574,0.987798,-1125.727295,19.419342)" style="stroke:#000000;stroke-width:0.05mm;fill:none" d="M901.091797,-0.024963L963.545776,51.481384"/>
    <path transform="matrix(0.987798,0.15574,-0.15574,0.987798,-1125.727295,19.419342)" style="stroke:#000000;stroke-width:0.05mm;fill:none" d="M800.820801,25.156433L799.726929,25.689392L798.85144,26.123596L798.015747,26.573608L797.164856,27.069519L796.335815,27.585815L795.507446,28.123291L794.678467,28.639648L793.85083,29.198181L793.043701,29.734863L792.237305,30.292725L791.430908,30.850525L790.625305,31.429688L789.84082,32.007874L789.056335,32.586121L788.272583,33.185547L787.488831,33.785034L786.72699,34.404846L785.965088,35.024719L785.224487,35.643738L784.463318,36.28479L784.052124,36.638123L783.662109,36.990662L783.29248,37.32135L782.92218,37.630981L782.572998,37.939697L782.244873,38.247803L781.937256,38.533936L781.6297,38.820129L781.342407,39.084351L781.055908,39.369751L780.768738,39.634094L780.502686,39.897522L780.237366,40.18219L779.971252,40.44574L779.727112,40.729614L779.461792,41.014343L779.217651,41.298218L778.952271,41.582947L778.708862,41.888L778.445007,42.214905L778.383789,42.28064L778.344482,42.366638L778.283997,42.453552L778.243958,42.518433L778.204712,42.604614L778.165283,42.690674L778.125977,42.776794L778.108521,42.883301L778.069092,42.969482L778.051025,43.054871L778.033569,43.161377L778.01532,43.246765L778.019043,43.352539L778.000854,43.437988L778.017944,43.924561L778.042114,44.008423L778.066284,44.092407L778.090454,44.176208L778.114502,44.260132L778.138672,44.343933L778.184021,44.427063L778.208191,44.510986L778.253418,44.594238L778.297913,44.656128L778.34314,44.739319L778.409668,44.821716L778.454102,44.883728L778.520569,44.966125L778.565063,45.028076L778.631531,45.110535L778.697205,45.171753L778.762939,45.23291L778.828613,45.294128L778.894287,45.355347L778.960022,45.416565L779.025757,45.477722L779.504517,45.842102L780.004395,46.205872L780.52478,46.547546L781.066284,46.88855L781.650024,47.228149L782.233093,47.546448L782.857727,47.842224L783.483093,48.159119L784.128845,48.454102L784.794983,48.727173L785.461182,49.000305L786.126648,49.252197L786.813965,49.524536L787.499756,49.754578L788.186401,50.005737L788.87146,50.2146L789.557312,50.444641L790.242432,50.653503L790.926758,50.841248L791.589966,51.029724L792.466919,51.274292L793.365051,51.518005L794.262451,51.740662L795.159119,51.942017L796.055725,52.143494L796.95166,52.323792L797.847534,52.504089L798.764587,52.683655L799.680847,52.842041L800.575256,52.97998L801.491577,53.138367L802.406433,53.254456L803.32196,53.391663L804.236755,53.507751L805.194702,53.666931L806.05481,53.783447L806.948059,53.899536L807.846008,54.021423L808.526855,54.094666"/>
    <path transform="matrix(-1.00752,-0.014372,0.233699,-1.93953,-392.52298,-291.210205)" style="stroke:#000000;stroke-width:0.05mm;fill:none" d="M-189.466003,-245.106003L-189.464005,-247.315994L-159.535995,-244.759003L-159.537994,-242.548996L-189.466003,-245.106003z"/>
</svg>
